{
  "source": "C:\\Users\\Peter\\Desktop\\stuff\\MIUN\\quantitative_research\\video_compression\\videos\\BVI-HD\\BVI-HD_CDVL_videos\\ORIG\\CloudsZoom_1920x1080_60fps.mp4",
  "output": "C:\\Users\\Peter\\Desktop\\stuff\\MIUN\\quantitative_research\\video_compression\\compressed_videos\\BVI-HD\\hevc\\8\\CloudsZoom_1920x1080_60fps_hevc.mp4",
  "codec": "hevc",
  "ok": "Input #0, mov,mp4,m4a,3gp,3g2,mj2, from 'C:\\Users\\Peter\\Desktop\\stuff\\MIUN\\quantitative_research\\video_compression\\videos\\BVI-HD\\BVI-HD_CDVL_videos\\ORIG\\CloudsZoom_1920x1080_60fps.mp4':\n  Metadata:\n    major_brand     : isom\n    minor_version   : 512\n    compatible_brands: isomiso2avc1mp41\n    encoder         : Lavf54.28.101\n  Duration: 00:00:05.00, start: 0.000000, bitrate: 32589 kb/s\n  Stream #0:0[0x1](und): Video: h264 (High 4:4:4 Predictive) (avc1 / 0x31637661), yuv420p(progressive), 1920x1080, 32586 kb/s, 60 fps, 60 tbr, 60 tbn (default)\n    Metadata:\n      handler_name    : VideoHandler\n      vendor_id       : [0][0][0][0]\n[out#0/mp4 @ 0000026971b0aac0] Codec AVOption b:a (set bitrate (in bits/s)) has not been used for any stream. The most likely reason is either wrong type (e.g. a video option with no video streams) or that it is a private option of some decoder which was not actually used for any stream.\nStream mapping:\n  Stream #0:0 -> #0:0 (h264 (native) -> hevc (libx265))\nPress [q] to stop, [?] for help\n[libx265 @ 00000269722e00c0] Unknown option: \"aq-mode.\nx265 [info]: HEVC encoder version 4.1+190-8f11c33ac\nx265 [info]: build info [Windows][GCC 15.1.0][64 bit] 10bit\nx265 [info]: using cpu capabilities: MMX2 SSE2Fast LZCNT SSSE3 SSE4.2 AVX FMA3 BMI2 AVX2\nx265 [info]: Main 10 profile, Level-4.1 (Main tier)\nx265 [info]: Thread pool created using 12 threads\nx265 [info]: Slices                              : 1\nx265 [info]: frame threads / pool features       : 3 / wpp(17 rows)\nx265 [info]: Coding QT: max CU size, min CU size : 64 / 8\nx265 [info]: Residual QT: max TU size, max depth : 32 / 1 inter / 1 intra\nx265 [info]: ME / range / subpel / merge         : star / 57 / 3 / 3\nx265 [info]: Keyframe min / max / scenecut / bias  : 25 / 250 / 40 / 5.00 \nx265 [info]: Lookahead / bframes / badapt        : 25 / 4 / 2\nx265 [info]: b-pyramid / weightp / weightb       : 1 / 1 / 0\nx265 [info]: References / ref-limit  cu / depth  : 4 / on / on\nx265 [info]: AQ: mode / str / qg-size / cu-tree  : 2 / 1.0 / 32 / 1\nx265 [info]: Rate Control / qCompress            : ABR-8000 kbps / 0.60\nx265 [info]: VBV/HRD buffer / max-rate / init    : 8000 / 8000 / 0.750\nx265 [info]: tools: rect limit-modes rd=4 psy-rd=2.00 rdoq=2 psy-rdoq=1.00\nx265 [info]: tools: rskip mode=1 signhide tmvp strong-intra-smoothing lslices=4\nx265 [info]: tools: deblock sao dhdr10-info\nOutput #0, mp4, to 'C:\\Users\\Peter\\Desktop\\stuff\\MIUN\\quantitative_research\\video_compression\\compressed_videos\\BVI-HD\\hevc\\8\\CloudsZoom_1920x1080_60fps_hevc.mp4':\n  Metadata:\n    major_brand     : isom\n    minor_version   : 512\n    compatible_brands: isomiso2avc1mp41\n    encoder         : Lavf62.3.100\n  Stream #0:0(und): Video: hevc (hev1 / 0x31766568), yuv420p10le(tv, progressive), 1920x1080, q=2-31, 8000 kb/s, 60 fps, 15360 tbn (default)\n    Metadata:\n      encoder         : Lavc62.11.100 libx265\n      handler_name    : VideoHandler\n      vendor_id       : [0][0][0][0]\n    Side data:\n      cpb: bitrate max/min/avg: 8000000/0/8000000 buffer size: 8000000 vbv_delay: N/A\nframe=    0 fps=0.0 q=0.0 size=       0KiB time=N/A bitrate=N/A speed=N/A elapsed=0:00:00.50    \nframe=    0 fps=0.0 q=0.0 size=       0KiB time=N/A bitrate=N/A speed=N/A elapsed=0:00:01.02    \nframe=    0 fps=0.0 q=0.0 size=       0KiB time=N/A bitrate=N/A speed=N/A elapsed=0:00:01.55    \nframe=    0 fps=0.0 q=0.0 size=       0KiB time=N/A bitrate=N/A speed=N/A elapsed=0:00:02.08    \nframe=    0 fps=0.0 q=0.0 size=       0KiB time=N/A bitrate=N/A speed=N/A elapsed=0:00:02.60    \nframe=    0 fps=0.0 q=0.0 size=       0KiB time=N/A bitrate=N/A speed=N/A elapsed=0:00:03.13    \nframe=    0 fps=0.0 q=0.0 size=       0KiB time=N/A bitrate=N/A speed=N/A elapsed=0:00:03.65    \nframe=    0 fps=0.0 q=0.0 size=       0KiB time=N/A bitrate=N/A speed=N/A elapsed=0:00:04.20    \nframe=    0 fps=0.0 q=0.0 size=       0KiB time=N/A bitrate=N/A speed=N/A elapsed=0:00:04.75    \nframe=    0 fps=0.0 q=0.0 size=       0KiB time=N/A bitrate=N/A speed=N/A elapsed=0:00:05.28    \nframe=    0 fps=0.0 q=0.0 size=       0KiB time=N/A bitrate=N/A speed=N/A elapsed=0:00:05.83    \nframe=    0 fps=0.0 q=0.0 size=       0KiB time=N/A bitrate=N/A speed=N/A elapsed=0:00:06.36    \nframe=    0 fps=0.0 q=0.0 size=       0KiB time=N/A bitrate=N/A speed=N/A elapsed=0:00:06.90    \nframe=    0 fps=0.0 q=0.0 size=       0KiB time=N/A bitrate=N/A speed=N/A elapsed=0:00:07.42    \nframe=    2 fps=0.3 q=27.1 size=       0KiB time=00:00:00.00 bitrate=N/A speed=   0x elapsed=0:00:07.95    \nframe=    3 fps=0.4 q=28.4 size=       0KiB time=00:00:00.01 bitrate=  21.1kbits/s speed=0.00196x elapsed=0:00:08.48    \nframe=    4 fps=0.4 q=28.8 size=       0KiB time=00:00:00.03 bitrate=  10.6kbits/s speed=0.0037x elapsed=0:00:09.00    \nframe=    4 fps=0.4 q=28.8 size=       0KiB time=00:00:00.03 bitrate=  10.6kbits/s speed=0.0035x elapsed=0:00:09.52    \nframe=    4 fps=0.4 q=28.8 size=       0KiB time=00:00:00.03 bitrate=  10.6kbits/s speed=0.00332x elapsed=0:00:10.03    \nframe=    5 fps=0.5 q=28.4 size=       0KiB time=00:00:00.05 bitrate=   7.0kbits/s speed=0.00473x elapsed=0:00:10.57    \nframe=    5 fps=0.4 q=28.4 size=       0KiB time=00:00:00.05 bitrate=   7.0kbits/s speed=0.0045x elapsed=0:00:11.12    \nframe=    6 fps=0.5 q=28.1 size=       0KiB time=00:00:00.06 bitrate=   5.3kbits/s speed=0.00573x elapsed=0:00:11.64    \nframe=    7 fps=0.6 q=18.7 size=       0KiB time=00:00:00.08 bitrate=   4.2kbits/s speed=0.00685x elapsed=0:00:12.15    \nframe=    7 fps=0.6 q=18.7 size=       0KiB time=00:00:00.08 bitrate=   4.2kbits/s speed=0.00657x elapsed=0:00:12.67    \nframe=    7 fps=0.5 q=18.7 size=       0KiB time=00:00:00.08 bitrate=   4.2kbits/s speed=0.00631x elapsed=0:00:13.21    \nframe=    8 fps=0.6 q=22.7 size=       0KiB time=00:00:00.10 bitrate=   3.5kbits/s speed=0.00727x elapsed=0:00:13.75    \nframe=    9 fps=0.6 q=23.7 size=       0KiB time=00:00:00.11 bitrate=   3.0kbits/s speed=0.00816x elapsed=0:00:14.28    \nframe=    9 fps=0.6 q=23.7 size=       0KiB time=00:00:00.11 bitrate=   3.0kbits/s speed=0.00788x elapsed=0:00:14.80    \nframe=    9 fps=0.6 q=23.7 size=       0KiB time=00:00:00.11 bitrate=   3.0kbits/s speed=0.00761x elapsed=0:00:15.33    \nframe=    9 fps=0.6 q=23.7 size=       0KiB time=00:00:00.11 bitrate=   3.0kbits/s speed=0.00736x elapsed=0:00:15.85    \nframe=   10 fps=0.6 q=21.7 size=       0KiB time=00:00:00.13 bitrate=   2.6kbits/s speed=0.00814x elapsed=0:00:16.38    \nframe=   11 fps=0.7 q=22.0 size=       0KiB time=00:00:00.15 bitrate=   2.3kbits/s speed=0.00888x elapsed=0:00:16.90    \nframe=   11 fps=0.6 q=22.0 size=       0KiB time=00:00:00.15 bitrate=   2.3kbits/s speed=0.0086x elapsed=0:00:17.44    \nframe=   12 fps=0.7 q=15.2 size=       0KiB time=00:00:00.16 bitrate=   2.1kbits/s speed=0.00927x elapsed=0:00:17.98    \nframe=   14 fps=0.8 q=19.0 size=       0KiB time=00:00:00.20 bitrate=   1.8kbits/s speed=0.0108x elapsed=0:00:18.49    \nframe=   14 fps=0.7 q=19.0 size=       0KiB time=00:00:00.20 bitrate=   1.8kbits/s speed=0.0105x elapsed=0:00:19.00    \nframe=   14 fps=0.7 q=19.0 size=       0KiB time=00:00:00.20 bitrate=   1.8kbits/s speed=0.0102x elapsed=0:00:19.53    \nframe=   14 fps=0.7 q=19.0 size=       0KiB time=00:00:00.20 bitrate=   1.8kbits/s speed=0.00997x elapsed=0:00:20.05    \nframe=   14 fps=0.7 q=19.0 size=       0KiB time=00:00:00.20 bitrate=   1.8kbits/s speed=0.00972x elapsed=0:00:20.57    \nframe=   15 fps=0.7 q=18.9 size=       0KiB time=00:00:00.21 bitrate=   1.6kbits/s speed=0.0103x elapsed=0:00:21.08    \nframe=   15 fps=0.7 q=18.9 size=       0KiB time=00:00:00.21 bitrate=   1.6kbits/s speed=0.01x elapsed=0:00:21.60    \nframe=   15 fps=0.7 q=18.9 size=       0KiB time=00:00:00.21 bitrate=   1.6kbits/s speed=0.00979x elapsed=0:00:22.12    \nframe=   16 fps=0.7 q=18.8 size=       0KiB time=00:00:00.23 bitrate=   1.5kbits/s speed=0.0103x elapsed=0:00:22.66    \nframe=   16 fps=0.7 q=18.8 size=       0KiB time=00:00:00.23 bitrate=   1.5kbits/s speed=0.01x elapsed=0:00:23.22    \nframe=   16 fps=0.7 q=18.8 size=       0KiB time=00:00:00.23 bitrate=   1.5kbits/s speed=0.00982x elapsed=0:00:23.74    \nframe=   17 fps=0.7 q=11.3 size=       0KiB time=00:00:00.25 bitrate=   1.4kbits/s speed=0.0103x elapsed=0:00:24.25    \nframe=   17 fps=0.7 q=11.3 size=       0KiB time=00:00:00.25 bitrate=   1.4kbits/s speed=0.0101x elapsed=0:00:24.76    \nframe=   18 fps=0.7 q=17.6 size=       0KiB time=00:00:00.26 bitrate=   1.3kbits/s speed=0.0105x elapsed=0:00:25.31    \nframe=   19 fps=0.7 q=17.0 size=       0KiB time=00:00:00.28 bitrate=   1.2kbits/s speed=0.011x elapsed=0:00:25.83    \nframe=   19 fps=0.7 q=17.0 size=       0KiB time=00:00:00.28 bitrate=   1.2kbits/s speed=0.0108x elapsed=0:00:26.35    \nframe=   19 fps=0.7 q=17.0 size=       0KiB time=00:00:00.28 bitrate=   1.2kbits/s speed=0.0105x elapsed=0:00:26.86    \nframe=   20 fps=0.7 q=15.6 size=       0KiB time=00:00:00.30 bitrate=   1.2kbits/s speed=0.011x elapsed=0:00:27.38    \nframe=   20 fps=0.7 q=15.6 size=       0KiB time=00:00:00.30 bitrate=   1.2kbits/s speed=0.0108x elapsed=0:00:27.90    \nframe=   20 fps=0.7 q=15.6 size=       0KiB time=00:00:00.30 bitrate=   1.2kbits/s speed=0.0106x elapsed=0:00:28.42    \nframe=   21 fps=0.7 q=16.9 size=       0KiB time=00:00:00.31 bitrate=   1.1kbits/s speed=0.0109x elapsed=0:00:28.93    \nframe=   21 fps=0.7 q=16.9 size=       0KiB time=00:00:00.31 bitrate=   1.1kbits/s speed=0.0107x elapsed=0:00:29.46    \nframe=   22 fps=0.7 q=8.2 size=       0KiB time=00:00:00.33 bitrate=   1.1kbits/s speed=0.0111x elapsed=0:00:29.97    \nframe=   22 fps=0.7 q=8.2 size=       0KiB time=00:00:00.33 bitrate=   1.1kbits/s speed=0.0109x elapsed=0:00:30.49    \nframe=   22 fps=0.7 q=8.2 size=       0KiB time=00:00:00.33 bitrate=   1.1kbits/s speed=0.0107x elapsed=0:00:31.01    \nframe=   22 fps=0.7 q=8.2 size=       0KiB time=00:00:00.33 bitrate=   1.1kbits/s speed=0.0106x elapsed=0:00:31.53    \nframe=   23 fps=0.7 q=14.0 size=       0KiB time=00:00:00.35 bitrate=   1.0kbits/s speed=0.0109x elapsed=0:00:32.05    \nframe=   24 fps=0.7 q=15.7 size=       0KiB time=00:00:00.36 bitrate=   1.0kbits/s speed=0.0113x elapsed=0:00:32.58    \nframe=   24 fps=0.7 q=15.7 size=       0KiB time=00:00:00.36 bitrate=   1.0kbits/s speed=0.0111x elapsed=0:00:33.12    \nframe=   24 fps=0.7 q=15.7 size=       0KiB time=00:00:00.36 bitrate=   1.0kbits/s speed=0.0109x elapsed=0:00:33.67    \nframe=   24 fps=0.7 q=15.7 size=       0KiB time=00:00:00.36 bitrate=   1.0kbits/s speed=0.0107x elapsed=0:00:34.18    \nframe=   24 fps=0.7 q=15.7 size=       0KiB time=00:00:00.36 bitrate=   1.0kbits/s speed=0.0106x elapsed=0:00:34.69    \nframe=   25 fps=0.7 q=13.8 size=       0KiB time=00:00:00.38 bitrate=   0.9kbits/s speed=0.0109x elapsed=0:00:35.21    \nframe=   26 fps=0.7 q=14.2 size=       0KiB time=00:00:00.40 bitrate=   0.9kbits/s speed=0.0112x elapsed=0:00:35.73    \nframe=   26 fps=0.7 q=14.2 size=       0KiB time=00:00:00.40 bitrate=   0.9kbits/s speed=0.011x elapsed=0:00:36.24    \nframe=   26 fps=0.7 q=14.2 size=       0KiB time=00:00:00.40 bitrate=   0.9kbits/s speed=0.0109x elapsed=0:00:36.76    \nframe=   27 fps=0.7 q=6.4 size=       0KiB time=00:00:00.41 bitrate=   0.8kbits/s speed=0.0112x elapsed=0:00:37.30    \nframe=   27 fps=0.7 q=6.4 size=       0KiB time=00:00:00.41 bitrate=   0.8kbits/s speed=0.011x elapsed=0:00:37.85    \nframe=   27 fps=0.7 q=6.4 size=       0KiB time=00:00:00.41 bitrate=   0.8kbits/s speed=0.0108x elapsed=0:00:38.40    \nframe=   27 fps=0.7 q=6.4 size=       0KiB time=00:00:00.41 bitrate=   0.8kbits/s speed=0.0107x elapsed=0:00:38.92    \nframe=   28 fps=0.7 q=13.1 size=     256KiB time=00:00:00.43 bitrate=4840.4kbits/s speed=0.011x elapsed=0:00:39.44    \nframe=   28 fps=0.7 q=13.1 size=     256KiB time=00:00:00.43 bitrate=4840.4kbits/s speed=0.0108x elapsed=0:00:39.95    \nframe=   29 fps=0.7 q=14.4 size=     256KiB time=00:00:00.45 bitrate=4661.1kbits/s speed=0.0111x elapsed=0:00:40.47    \nframe=   29 fps=0.7 q=14.4 size=     256KiB time=00:00:00.45 bitrate=4661.1kbits/s speed=0.011x elapsed=0:00:40.99    \nframe=   29 fps=0.7 q=14.4 size=     256KiB time=00:00:00.45 bitrate=4661.1kbits/s speed=0.0108x elapsed=0:00:41.50    \nframe=   29 fps=0.7 q=14.4 size=     256KiB time=00:00:00.45 bitrate=4661.1kbits/s speed=0.0107x elapsed=0:00:42.01    \nframe=   29 fps=0.7 q=14.4 size=     256KiB time=00:00:00.45 bitrate=4661.1kbits/s speed=0.0106x elapsed=0:00:42.53    \nframe=   30 fps=0.7 q=14.2 size=     256KiB time=00:00:00.46 bitrate=4494.6kbits/s speed=0.0108x elapsed=0:00:43.06    \nframe=   30 fps=0.7 q=14.2 size=     256KiB time=00:00:00.46 bitrate=4494.6kbits/s speed=0.0107x elapsed=0:00:43.59    \nframe=   31 fps=0.7 q=13.7 size=     256KiB time=00:00:00.48 bitrate=4339.7kbits/s speed=0.011x elapsed=0:00:44.13    \nframe=   31 fps=0.7 q=13.7 size=     256KiB time=00:00:00.48 bitrate=4339.7kbits/s speed=0.0108x elapsed=0:00:44.68    \nframe=   31 fps=0.7 q=13.7 size=     256KiB time=00:00:00.48 bitrate=4339.7kbits/s speed=0.0107x elapsed=0:00:45.21    \nframe=   31 fps=0.7 q=13.7 size=     256KiB time=00:00:00.48 bitrate=4339.7kbits/s speed=0.0106x elapsed=0:00:45.73    \nframe=   32 fps=0.7 q=6.8 size=     256KiB time=00:00:00.50 bitrate=4195.0kbits/s speed=0.0108x elapsed=0:00:46.26    \nframe=   32 fps=0.7 q=6.8 size=     256KiB time=00:00:00.50 bitrate=4195.0kbits/s speed=0.0107x elapsed=0:00:46.76    \nframe=   32 fps=0.7 q=6.8 size=     256KiB time=00:00:00.50 bitrate=4195.0kbits/s speed=0.0106x elapsed=0:00:47.28    \nframe=   33 fps=0.7 q=12.8 size=     256KiB time=00:00:00.51 bitrate=4059.7kbits/s speed=0.0108x elapsed=0:00:47.80    \nframe=   33 fps=0.7 q=12.8 size=     256KiB time=00:00:00.51 bitrate=4059.7kbits/s speed=0.0107x elapsed=0:00:48.35    \nframe=   33 fps=0.7 q=12.8 size=     256KiB time=00:00:00.51 bitrate=4059.7kbits/s speed=0.0106x elapsed=0:00:48.88    \nframe=   34 fps=0.7 q=13.7 size=     256KiB time=00:00:00.53 bitrate=3932.8kbits/s speed=0.0108x elapsed=0:00:49.39    \nframe=   34 fps=0.7 q=13.7 size=     256KiB time=00:00:00.53 bitrate=3932.8kbits/s speed=0.0107x elapsed=0:00:49.94    \nframe=   34 fps=0.7 q=13.7 size=     256KiB time=00:00:00.53 bitrate=3932.8kbits/s speed=0.0106x elapsed=0:00:50.49    \nframe=   34 fps=0.7 q=13.7 size=     256KiB time=00:00:00.53 bitrate=3932.8kbits/s speed=0.0104x elapsed=0:00:51.03    \nframe=   34 fps=0.7 q=13.7 size=     256KiB time=00:00:00.53 bitrate=3932.8kbits/s speed=0.0103x elapsed=0:00:51.57    \nframe=   34 fps=0.7 q=13.7 size=     256KiB time=00:00:00.53 bitrate=3932.8kbits/s speed=0.0102x elapsed=0:00:52.09    \nframe=   34 fps=0.6 q=13.7 size=     256KiB time=00:00:00.53 bitrate=3932.8kbits/s speed=0.0101x elapsed=0:00:52.61    \nframe=   34 fps=0.6 q=13.7 size=     256KiB time=00:00:00.53 bitrate=3932.8kbits/s speed=0.01x elapsed=0:00:53.15    \nframe=   35 fps=0.7 q=13.6 size=     256KiB time=00:00:00.55 bitrate=3813.6kbits/s speed=0.0102x elapsed=0:00:53.74    \nframe=   35 fps=0.6 q=13.6 size=     256KiB time=00:00:00.55 bitrate=3813.6kbits/s speed=0.0101x elapsed=0:00:54.32    \nframe=   35 fps=0.6 q=13.6 size=     256KiB time=00:00:00.55 bitrate=3813.6kbits/s speed=0.01x elapsed=0:00:54.92    \nframe=   35 fps=0.6 q=13.6 size=     256KiB time=00:00:00.55 bitrate=3813.6kbits/s speed=0.0099x elapsed=0:00:55.53    \nframe=   35 fps=0.6 q=13.6 size=     256KiB time=00:00:00.55 bitrate=3813.6kbits/s speed=0.00981x elapsed=0:00:56.06    \nframe=   35 fps=0.6 q=13.6 size=     256KiB time=00:00:00.55 bitrate=3813.6kbits/s speed=0.00972x elapsed=0:00:56.60    \nframe=   36 fps=0.6 q=13.8 size=     256KiB time=00:00:00.56 bitrate=3701.5kbits/s speed=0.00992x elapsed=0:00:57.13    \nframe=   36 fps=0.6 q=13.8 size=     256KiB time=00:00:00.56 bitrate=3701.5kbits/s speed=0.00983x elapsed=0:00:57.66    \nframe=   36 fps=0.6 q=13.8 size=     256KiB time=00:00:00.56 bitrate=3701.5kbits/s speed=0.00973x elapsed=0:00:58.26    \nframe=   37 fps=0.6 q=7.0 size=     256KiB time=00:00:00.58 bitrate=3595.7kbits/s speed=0.00992x elapsed=0:00:58.82    \nframe=   37 fps=0.6 q=7.0 size=     256KiB time=00:00:00.58 bitrate=3595.7kbits/s speed=0.00983x elapsed=0:00:59.34    \nframe=   38 fps=0.6 q=13.1 size=     256KiB time=00:00:00.60 bitrate=3495.8kbits/s speed=0.01x elapsed=0:00:59.86    \nframe=   38 fps=0.6 q=13.1 size=     256KiB time=00:00:00.60 bitrate=3495.8kbits/s speed=0.00994x elapsed=0:01:00.38    \nframe=   38 fps=0.6 q=13.1 size=     256KiB time=00:00:00.60 bitrate=3495.8kbits/s speed=0.00985x elapsed=0:01:00.92    \nframe=   38 fps=0.6 q=13.1 size=     256KiB time=00:00:00.60 bitrate=3495.8kbits/s speed=0.00977x elapsed=0:01:01.44    \nframe=   39 fps=0.6 q=14.1 size=     256KiB time=00:00:00.61 bitrate=3401.4kbits/s speed=0.00995x elapsed=0:01:01.96    \nframe=   39 fps=0.6 q=14.1 size=     256KiB time=00:00:00.61 bitrate=3401.4kbits/s speed=0.00987x elapsed=0:01:02.47    \nframe=   39 fps=0.6 q=14.1 size=     256KiB time=00:00:00.61 bitrate=3401.4kbits/s speed=0.00979x elapsed=0:01:02.99    \nframe=   39 fps=0.6 q=14.1 size=     256KiB time=00:00:00.61 bitrate=3401.4kbits/s speed=0.0097x elapsed=0:01:03.57    \nframe=   40 fps=0.6 q=13.7 size=     256KiB time=00:00:00.63 bitrate=3311.9kbits/s speed=0.00988x elapsed=0:01:04.09    \nframe=   40 fps=0.6 q=13.7 size=     256KiB time=00:00:00.63 bitrate=3311.9kbits/s speed=0.0098x elapsed=0:01:04.60    \nframe=   40 fps=0.6 q=13.7 size=     256KiB time=00:00:00.63 bitrate=3311.9kbits/s speed=0.00972x elapsed=0:01:05.14    \nframe=   41 fps=0.6 q=13.6 size=     512KiB time=00:00:00.65 bitrate=6453.3kbits/s speed=0.00989x elapsed=0:01:05.69    \nframe=   41 fps=0.6 q=13.6 size=     512KiB time=00:00:00.65 bitrate=6453.3kbits/s speed=0.00982x elapsed=0:01:06.22    \nframe=   41 fps=0.6 q=13.6 size=     512KiB time=00:00:00.65 bitrate=6453.3kbits/s speed=0.00974x elapsed=0:01:06.74    \nframe=   42 fps=0.6 q=7.2 size=     512KiB time=00:00:00.66 bitrate=6292.0kbits/s speed=0.00991x elapsed=0:01:07.25    \nframe=   42 fps=0.6 q=7.2 size=     512KiB time=00:00:00.66 bitrate=6292.0kbits/s speed=0.00984x elapsed=0:01:07.76    \nframe=   42 fps=0.6 q=7.2 size=     512KiB time=00:00:00.66 bitrate=6292.0kbits/s speed=0.00976x elapsed=0:01:08.29    \nframe=   43 fps=0.6 q=12.9 size=     512KiB time=00:00:00.68 bitrate=6138.5kbits/s speed=0.00993x elapsed=0:01:08.80    \nframe=   44 fps=0.6 q=13.9 size=     512KiB time=00:00:00.70 bitrate=5992.4kbits/s speed=0.0101x elapsed=0:01:09.32    \nframe=   44 fps=0.6 q=13.9 size=     512KiB time=00:00:00.70 bitrate=5992.4kbits/s speed=0.01x elapsed=0:01:09.83    \nframe=   44 fps=0.6 q=13.9 size=     512KiB time=00:00:00.70 bitrate=5992.4kbits/s speed=0.00995x elapsed=0:01:10.35    \nframe=   44 fps=0.6 q=13.9 size=     512KiB time=00:00:00.70 bitrate=5992.4kbits/s speed=0.00987x elapsed=0:01:10.89    \nframe=   44 fps=0.6 q=13.9 size=     512KiB time=00:00:00.70 bitrate=5992.4kbits/s speed=0.0098x elapsed=0:01:11.41    \nframe=   44 fps=0.6 q=13.9 size=     512KiB time=00:00:00.70 bitrate=5992.4kbits/s speed=0.00973x elapsed=0:01:11.93    \nframe=   45 fps=0.6 q=13.8 size=     512KiB time=00:00:00.71 bitrate=5853.0kbits/s speed=0.00989x elapsed=0:01:12.45    \nframe=   45 fps=0.6 q=13.8 size=     512KiB time=00:00:00.71 bitrate=5853.0kbits/s speed=0.00982x elapsed=0:01:12.97    \nframe=   45 fps=0.6 q=13.8 size=     512KiB time=00:00:00.71 bitrate=5853.0kbits/s speed=0.00975x elapsed=0:01:13.50    \nframe=   45 fps=0.6 q=13.8 size=     512KiB time=00:00:00.71 bitrate=5853.0kbits/s speed=0.00968x elapsed=0:01:14.02    \nframe=   46 fps=0.6 q=13.4 size=     512KiB time=00:00:00.73 bitrate=5720.0kbits/s speed=0.00984x elapsed=0:01:14.55    \nframe=   46 fps=0.6 q=13.4 size=     512KiB time=00:00:00.73 bitrate=5720.0kbits/s speed=0.00977x elapsed=0:01:15.06    \nframe=   46 fps=0.6 q=13.4 size=     512KiB time=00:00:00.73 bitrate=5720.0kbits/s speed=0.0097x elapsed=0:01:15.58    \nframe=   47 fps=0.6 q=7.6 size=     512KiB time=00:00:00.75 bitrate=5592.9kbits/s speed=0.00985x elapsed=0:01:16.11    \nframe=   47 fps=0.6 q=7.6 size=     512KiB time=00:00:00.75 bitrate=5592.9kbits/s speed=0.00978x elapsed=0:01:16.64    \nframe=   48 fps=0.6 q=12.6 size=     512KiB time=00:00:00.76 bitrate=5471.3kbits/s speed=0.00994x elapsed=0:01:17.16    \nframe=   48 fps=0.6 q=12.6 size=     512KiB time=00:00:00.76 bitrate=5471.3kbits/s speed=0.00987x elapsed=0:01:17.68    \nframe=   49 fps=0.6 q=13.9 size=     512KiB time=00:00:00.78 bitrate=5354.9kbits/s speed=0.01x elapsed=0:01:18.23    \nframe=   49 fps=0.6 q=13.9 size=     512KiB time=00:00:00.78 bitrate=5354.9kbits/s speed=0.00995x elapsed=0:01:18.75    \nframe=   49 fps=0.6 q=13.9 size=     512KiB time=00:00:00.78 bitrate=5354.9kbits/s speed=0.00988x elapsed=0:01:19.27    \nframe=   50 fps=0.6 q=13.9 size=     512KiB time=00:00:00.78 bitrate=5354.9kbits/s speed=0.00981x elapsed=0:01:19.81    \nframe=   50 fps=0.6 q=13.9 size=     512KiB time=00:00:00.80 bitrate=5243.3kbits/s speed=0.00995x elapsed=0:01:20.38    \nframe=   50 fps=0.6 q=13.9 size=     512KiB time=00:00:00.80 bitrate=5243.3kbits/s speed=0.00988x elapsed=0:01:20.97    \nframe=   50 fps=0.6 q=13.9 size=     512KiB time=00:00:00.80 bitrate=5243.3kbits/s speed=0.00981x elapsed=0:01:21.52    \nframe=   50 fps=0.6 q=13.9 size=     512KiB time=00:00:00.80 bitrate=5243.3kbits/s speed=0.00975x elapsed=0:01:22.03    \nframe=   50 fps=0.6 q=13.9 size=     512KiB time=00:00:00.80 bitrate=5243.3kbits/s speed=0.00969x elapsed=0:01:22.58    \nframe=   50 fps=0.6 q=13.9 size=     512KiB time=00:00:00.80 bitrate=5243.3kbits/s speed=0.00962x elapsed=0:01:23.15    \nframe=   51 fps=0.6 q=13.7 size=     512KiB time=00:00:00.81 bitrate=5136.3kbits/s speed=0.00976x elapsed=0:01:23.70    \nframe=   51 fps=0.6 q=13.7 size=     512KiB time=00:00:00.81 bitrate=5136.3kbits/s speed=0.00969x elapsed=0:01:24.23    \nframe=   51 fps=0.6 q=13.7 size=     512KiB time=00:00:00.81 bitrate=5136.3kbits/s speed=0.00963x elapsed=0:01:24.78    \nframe=   51 fps=0.6 q=13.7 size=     512KiB time=00:00:00.81 bitrate=5136.3kbits/s speed=0.00957x elapsed=0:01:25.33    \nframe=   52 fps=0.6 q=7.1 size=     512KiB time=00:00:00.83 bitrate=5033.6kbits/s speed=0.0097x elapsed=0:01:25.89    \nframe=   52 fps=0.6 q=7.1 size=     512KiB time=00:00:00.83 bitrate=5033.6kbits/s speed=0.00964x elapsed=0:01:26.44    \nframe=   53 fps=0.6 q=12.9 size=     512KiB time=00:00:00.85 bitrate=4934.9kbits/s speed=0.00977x elapsed=0:01:27.00    \nframe=   53 fps=0.6 q=12.9 size=     512KiB time=00:00:00.85 bitrate=4934.9kbits/s speed=0.0097x elapsed=0:01:27.58    \nframe=   54 fps=0.6 q=14.1 size=     768KiB time=00:00:00.86 bitrate=7259.8kbits/s speed=0.00983x elapsed=0:01:28.12    \nframe=   54 fps=0.6 q=14.1 size=     768KiB time=00:00:00.86 bitrate=7259.8kbits/s speed=0.00978x elapsed=0:01:28.64    \nframe=   54 fps=0.6 q=14.1 size=     768KiB time=00:00:00.86 bitrate=7259.8kbits/s speed=0.00972x elapsed=0:01:29.16    \nframe=   55 fps=0.6 q=14.2 size=     768KiB time=00:00:00.88 bitrate=7122.8kbits/s speed=0.00985x elapsed=0:01:29.69    \nframe=   55 fps=0.6 q=14.2 size=     768KiB time=00:00:00.88 bitrate=7122.8kbits/s speed=0.00978x elapsed=0:01:30.30    \nframe=   55 fps=0.6 q=14.2 size=     768KiB time=00:00:00.88 bitrate=7122.8kbits/s speed=0.00972x elapsed=0:01:30.84    \nframe=   55 fps=0.6 q=14.2 size=     768KiB time=00:00:00.88 bitrate=7122.8kbits/s speed=0.00967x elapsed=0:01:31.37    \nframe=   55 fps=0.6 q=14.2 size=     768KiB time=00:00:00.88 bitrate=7122.8kbits/s speed=0.00961x elapsed=0:01:31.91    \nframe=   56 fps=0.6 q=14.1 size=     768KiB time=00:00:00.90 bitrate=6990.9kbits/s speed=0.00974x elapsed=0:01:32.42    \nframe=   56 fps=0.6 q=14.1 size=     768KiB time=00:00:00.90 bitrate=6990.9kbits/s speed=0.00968x elapsed=0:01:32.93    \nframe=   56 fps=0.6 q=14.1 size=     768KiB time=00:00:00.90 bitrate=6990.9kbits/s speed=0.00963x elapsed=0:01:33.50    \nframe=   57 fps=0.6 q=7.4 size=     768KiB time=00:00:00.91 bitrate=6863.8kbits/s speed=0.00974x elapsed=0:01:34.08    \nframe=   58 fps=0.6 q=13.1 size=     768KiB time=00:00:00.93 bitrate=6741.2kbits/s speed=0.00986x elapsed=0:01:34.61    \nframe=   58 fps=0.6 q=13.1 size=     768KiB time=00:00:00.93 bitrate=6741.2kbits/s speed=0.00981x elapsed=0:01:35.15    \nframe=   58 fps=0.6 q=13.1 size=     768KiB time=00:00:00.93 bitrate=6741.2kbits/s speed=0.00975x elapsed=0:01:35.72    \nframe=   58 fps=0.6 q=13.1 size=     768KiB time=00:00:00.93 bitrate=6741.2kbits/s speed=0.00969x elapsed=0:01:36.29    \nframe=   59 fps=0.6 q=14.3 size=     768KiB time=00:00:00.95 bitrate=6623.0kbits/s speed=0.00981x elapsed=0:01:36.84    \nframe=   59 fps=0.6 q=14.3 size=     768KiB time=00:00:00.95 bitrate=6623.0kbits/s speed=0.00975x elapsed=0:01:37.40    \nframe=   59 fps=0.6 q=14.3 size=     768KiB time=00:00:00.95 bitrate=6623.0kbits/s speed=0.0097x elapsed=0:01:37.93    \nframe=   60 fps=0.6 q=14.2 size=     768KiB time=00:00:00.96 bitrate=6508.8kbits/s speed=0.00982x elapsed=0:01:38.46    \nframe=   60 fps=0.6 q=14.2 size=     768KiB time=00:00:00.96 bitrate=6508.8kbits/s speed=0.00976x elapsed=0:01:39.03    \nframe=   60 fps=0.6 q=14.2 size=     768KiB time=00:00:00.96 bitrate=6508.8kbits/s speed=0.00971x elapsed=0:01:39.58    \nframe=   60 fps=0.6 q=14.2 size=     768KiB time=00:00:00.96 bitrate=6508.8kbits/s speed=0.00966x elapsed=0:01:40.11    \nframe=   61 fps=0.6 q=14.3 size=     768KiB time=00:00:00.98 bitrate=6398.5kbits/s speed=0.00977x elapsed=0:01:40.64    \nframe=   62 fps=0.6 q=7.5 size=     768KiB time=00:00:01.00 bitrate=6291.8kbits/s speed=0.00988x elapsed=0:01:41.18    \nframe=   62 fps=0.6 q=7.5 size=     768KiB time=00:00:01.00 bitrate=6291.8kbits/s speed=0.00983x elapsed=0:01:41.72    \nframe=   62 fps=0.6 q=7.5 size=     768KiB time=00:00:01.00 bitrate=6291.8kbits/s speed=0.00977x elapsed=0:01:42.33    \nframe=   62 fps=0.6 q=7.5 size=     768KiB time=00:00:01.00 bitrate=6291.8kbits/s speed=0.00971x elapsed=0:01:42.96    \nframe=   62 fps=0.6 q=7.5 size=     768KiB time=00:00:01.00 bitrate=6291.8kbits/s speed=0.00965x elapsed=0:01:43.57    \nframe=   63 fps=0.6 q=13.2 size=     768KiB time=00:00:01.01 bitrate=6188.7kbits/s speed=0.00976x elapsed=0:01:44.12    \nframe=   63 fps=0.6 q=13.2 size=     768KiB time=00:00:01.01 bitrate=6188.7kbits/s speed=0.00971x elapsed=0:01:44.71    \nframe=   63 fps=0.6 q=13.2 size=     768KiB time=00:00:01.01 bitrate=6188.7kbits/s speed=0.00966x elapsed=0:01:45.28    \nframe=   63 fps=0.6 q=13.2 size=     768KiB time=00:00:01.01 bitrate=6188.7kbits/s speed=0.0096x elapsed=0:01:45.85    \nframe=   63 fps=0.6 q=13.2 size=     768KiB time=00:00:01.01 bitrate=6188.7kbits/s speed=0.00956x elapsed=0:01:46.36    \nframe=   63 fps=0.6 q=13.2 size=     768KiB time=00:00:01.01 bitrate=6188.7kbits/s speed=0.00951x elapsed=0:01:46.91    \nframe=   64 fps=0.6 q=14.2 size=     768KiB time=00:00:01.03 bitrate=6088.8kbits/s speed=0.00962x elapsed=0:01:47.44    \nframe=   64 fps=0.6 q=14.2 size=     768KiB time=00:00:01.03 bitrate=6088.8kbits/s speed=0.00957x elapsed=0:01:48.00    \nframe=   64 fps=0.6 q=14.2 size=     768KiB time=00:00:01.03 bitrate=6088.8kbits/s speed=0.00952x elapsed=0:01:48.58    \nframe=   64 fps=0.6 q=14.2 size=     768KiB time=00:00:01.03 bitrate=6088.8kbits/s speed=0.00947x elapsed=0:01:49.15    \nframe=   65 fps=0.6 q=14.4 size=     768KiB time=00:00:01.05 bitrate=5992.2kbits/s speed=0.00957x elapsed=0:01:49.68    \nframe=   65 fps=0.6 q=14.4 size=     768KiB time=00:00:01.05 bitrate=5992.2kbits/s speed=0.00953x elapsed=0:01:50.22    \nframe=   65 fps=0.6 q=14.4 size=     768KiB time=00:00:01.05 bitrate=5992.2kbits/s speed=0.00948x elapsed=0:01:50.74    \nframe=   66 fps=0.6 q=14.2 size=     768KiB time=00:00:01.06 bitrate=5898.6kbits/s speed=0.00959x elapsed=0:01:51.27    \nframe=   66 fps=0.6 q=14.2 size=     768KiB time=00:00:01.06 bitrate=5898.6kbits/s speed=0.00954x elapsed=0:01:51.78    \nframe=   68 fps=0.6 q=13.4 size=     768KiB time=00:00:01.10 bitrate=5719.8kbits/s speed=0.00979x elapsed=0:01:52.33    \nframe=   68 fps=0.6 q=13.4 size=     768KiB time=00:00:01.10 bitrate=5719.8kbits/s speed=0.00974x elapsed=0:01:52.92    \nframe=   69 fps=0.6 q=14.6 size=    1024KiB time=00:00:01.11 bitrate=7512.5kbits/s speed=0.00984x elapsed=0:01:53.47    \nframe=   69 fps=0.6 q=14.6 size=    1024KiB time=00:00:01.11 bitrate=7512.5kbits/s speed=0.0098x elapsed=0:01:54.00    \nframe=   69 fps=0.6 q=14.6 size=    1024KiB time=00:00:01.11 bitrate=7512.5kbits/s speed=0.00975x elapsed=0:01:54.52    \nframe=   70 fps=0.6 q=14.4 size=    1024KiB time=00:00:01.11 bitrate=7512.5kbits/s speed=0.0097x elapsed=0:01:55.07    \nframe=   70 fps=0.6 q=14.4 size=    1024KiB time=00:00:01.13 bitrate=7402.0kbits/s speed=0.0098x elapsed=0:01:55.60    \nframe=   70 fps=0.6 q=14.4 size=    1024KiB time=00:00:01.13 bitrate=7402.0kbits/s speed=0.00976x elapsed=0:01:56.11    \nframe=   71 fps=0.6 q=14.6 size=    1024KiB time=00:00:01.15 bitrate=7294.7kbits/s speed=0.00986x elapsed=0:01:56.63    \nframe=   71 fps=0.6 q=14.6 size=    1024KiB time=00:00:01.15 bitrate=7294.7kbits/s speed=0.00982x elapsed=0:01:57.16    \nframe=   71 fps=0.6 q=14.6 size=    1024KiB time=00:00:01.15 bitrate=7294.7kbits/s speed=0.00977x elapsed=0:01:57.70    \nframe=   72 fps=0.6 q=8.2 size=    1024KiB time=00:00:01.16 bitrate=7190.5kbits/s speed=0.00987x elapsed=0:01:58.20    \nframe=   73 fps=0.6 q=13.7 size=    1024KiB time=00:00:01.18 bitrate=7089.3kbits/s speed=0.00997x elapsed=0:01:58.74    \nframe=   73 fps=0.6 q=13.7 size=    1024KiB time=00:00:01.18 bitrate=7089.3kbits/s speed=0.00992x elapsed=0:01:59.27    \nframe=   73 fps=0.6 q=13.7 size=    1024KiB time=00:00:01.18 bitrate=7089.3kbits/s speed=0.00988x elapsed=0:01:59.81    \nframe=   74 fps=0.6 q=14.6 size=    1024KiB time=00:00:01.20 bitrate=6990.8kbits/s speed=0.00997x elapsed=0:02:00.33    \nframe=   74 fps=0.6 q=14.6 size=    1024KiB time=00:00:01.20 bitrate=6990.8kbits/s speed=0.00993x elapsed=0:02:00.84    \nframe=   74 fps=0.6 q=14.6 size=    1024KiB time=00:00:01.20 bitrate=6990.8kbits/s speed=0.00989x elapsed=0:02:01.37    \nframe=   74 fps=0.6 q=14.6 size=    1024KiB time=00:00:01.20 bitrate=6990.8kbits/s speed=0.00984x elapsed=0:02:01.92    \nframe=   75 fps=0.6 q=14.7 size=    1024KiB time=00:00:01.21 bitrate=6895.0kbits/s speed=0.00994x elapsed=0:02:02.42    \nframe=   76 fps=0.6 q=14.6 size=    1024KiB time=00:00:01.23 bitrate=6801.9kbits/s speed=0.01x elapsed=0:02:02.94    \nframe=   76 fps=0.6 q=14.6 size=    1024KiB time=00:00:01.23 bitrate=6801.9kbits/s speed=0.00999x elapsed=0:02:03.45    \nframe=   77 fps=0.6 q=8.4 size=    1024KiB time=00:00:01.25 bitrate=6711.2kbits/s speed=0.0101x elapsed=0:02:03.97    \nframe=   78 fps=0.6 q=13.7 size=    1024KiB time=00:00:01.26 bitrate=6622.9kbits/s speed=0.0102x elapsed=0:02:04.49    \nframe=   78 fps=0.6 q=13.7 size=    1024KiB time=00:00:01.26 bitrate=6622.9kbits/s speed=0.0101x elapsed=0:02:05.00    \nframe=   79 fps=0.6 q=14.8 size=    1024KiB time=00:00:01.28 bitrate=6536.9kbits/s speed=0.0102x elapsed=0:02:05.51    \nframe=   79 fps=0.6 q=14.8 size=    1024KiB time=00:00:01.28 bitrate=6536.9kbits/s speed=0.0102x elapsed=0:02:06.03    \nframe=   79 fps=0.6 q=14.8 size=    1024KiB time=00:00:01.28 bitrate=6536.9kbits/s speed=0.0101x elapsed=0:02:06.55    \nframe=   79 fps=0.6 q=14.8 size=    1024KiB time=00:00:01.28 bitrate=6536.9kbits/s speed=0.0101x elapsed=0:02:07.07    \nframe=   80 fps=0.6 q=14.7 size=    1024KiB time=00:00:01.30 bitrate=6453.0kbits/s speed=0.0102x elapsed=0:02:07.61    \nframe=   80 fps=0.6 q=14.7 size=    1024KiB time=00:00:01.30 bitrate=6453.0kbits/s speed=0.0101x elapsed=0:02:08.15    \nframe=   80 fps=0.6 q=14.7 size=    1024KiB time=00:00:01.30 bitrate=6453.0kbits/s speed=0.0101x elapsed=0:02:08.69    \nframe=   80 fps=0.6 q=14.7 size=    1024KiB time=00:00:01.30 bitrate=6453.0kbits/s speed=0.0101x elapsed=0:02:09.22    \nframe=   81 fps=0.6 q=14.6 size=    1024KiB time=00:00:01.31 bitrate=6371.4kbits/s speed=0.0101x elapsed=0:02:09.75    \nframe=   82 fps=0.6 q=9.4 size=    1024KiB time=00:00:01.33 bitrate=6291.7kbits/s speed=0.0102x elapsed=0:02:10.27    \nframe=   82 fps=0.6 q=9.4 size=    1024KiB time=00:00:01.33 bitrate=6291.7kbits/s speed=0.0102x elapsed=0:02:10.78    \nframe=   84 fps=0.6 q=14.8 size=    1280KiB time=00:00:01.36 bitrate=7672.8kbits/s speed=0.0104x elapsed=0:02:11.32    \nframe=   84 fps=0.6 q=14.8 size=    1280KiB time=00:00:01.36 bitrate=7672.8kbits/s speed=0.0104x elapsed=0:02:11.91    \nframe=   84 fps=0.6 q=14.8 size=    1280KiB time=00:00:01.36 bitrate=7672.8kbits/s speed=0.0103x elapsed=0:02:12.47    \nframe=   85 fps=0.6 q=14.8 size=    1280KiB time=00:00:01.38 bitrate=7580.3kbits/s speed=0.0104x elapsed=0:02:13.07    \nframe=   85 fps=0.6 q=14.8 size=    1280KiB time=00:00:01.38 bitrate=7580.3kbits/s speed=0.0103x elapsed=0:02:13.69    \nframe=   85 fps=0.6 q=14.8 size=    1280KiB time=00:00:01.38 bitrate=7580.3kbits/s speed=0.0103x elapsed=0:02:14.33    \nframe=   85 fps=0.6 q=14.8 size=    1280KiB time=00:00:01.38 bitrate=7580.3kbits/s speed=0.0103x elapsed=0:02:14.91    \nframe=   85 fps=0.6 q=14.8 size=    1280KiB time=00:00:01.38 bitrate=7580.3kbits/s speed=0.0102x elapsed=0:02:15.43    \nframe=   85 fps=0.6 q=14.8 size=    1280KiB time=00:00:01.38 bitrate=7580.3kbits/s speed=0.0102x elapsed=0:02:16.00    \nframe=   85 fps=0.6 q=14.8 size=    1280KiB time=00:00:01.38 bitrate=7580.3kbits/s speed=0.0101x elapsed=0:02:16.54    \nframe=   86 fps=0.6 q=14.7 size=    1280KiB time=00:00:01.40 bitrate=7490.1kbits/s speed=0.0102x elapsed=0:02:17.10    \nframe=   86 fps=0.6 q=14.7 size=    1280KiB time=00:00:01.40 bitrate=7490.1kbits/s speed=0.0102x elapsed=0:02:17.63    \nframe=   86 fps=0.6 q=14.7 size=    1280KiB time=00:00:01.40 bitrate=7490.1kbits/s speed=0.0101x elapsed=0:02:18.15    \nframe=   86 fps=0.6 q=14.7 size=    1280KiB time=00:00:01.40 bitrate=7490.1kbits/s speed=0.0101x elapsed=0:02:18.71    \nframe=   86 fps=0.6 q=14.7 size=    1280KiB time=00:00:01.40 bitrate=7490.1kbits/s speed=0.0101x elapsed=0:02:19.26    \nframe=   87 fps=0.6 q=8.4 size=    1280KiB time=00:00:01.41 bitrate=7402.0kbits/s speed=0.0101x elapsed=0:02:19.81    \nframe=   87 fps=0.6 q=8.4 size=    1280KiB time=00:00:01.41 bitrate=7402.0kbits/s speed=0.0101x elapsed=0:02:20.33    \nframe=   87 fps=0.6 q=8.4 size=    1280KiB time=00:00:01.41 bitrate=7402.0kbits/s speed=0.0101x elapsed=0:02:20.87    \nframe=   88 fps=0.6 q=13.8 size=    1280KiB time=00:00:01.43 bitrate=7315.9kbits/s speed=0.0101x elapsed=0:02:21.45    \nframe=   88 fps=0.6 q=13.8 size=    1280KiB time=00:00:01.43 bitrate=7315.9kbits/s speed=0.0101x elapsed=0:02:22.00    \nframe=   88 fps=0.6 q=13.8 size=    1280KiB time=00:00:01.43 bitrate=7315.9kbits/s speed=0.0101x elapsed=0:02:22.52    \nframe=   89 fps=0.6 q=14.9 size=    1280KiB time=00:00:01.45 bitrate=7231.8kbits/s speed=0.0101x elapsed=0:02:23.04    \nframe=   89 fps=0.6 q=14.9 size=    1280KiB time=00:00:01.45 bitrate=7231.8kbits/s speed=0.0101x elapsed=0:02:23.55    \nframe=   89 fps=0.6 q=14.9 size=    1280KiB time=00:00:01.45 bitrate=7231.8kbits/s speed=0.0101x elapsed=0:02:24.12    \nframe=   89 fps=0.6 q=14.9 size=    1280KiB time=00:00:01.45 bitrate=7231.8kbits/s speed=0.01x elapsed=0:02:24.68    \nframe=   89 fps=0.6 q=14.9 size=    1280KiB time=00:00:01.45 bitrate=7231.8kbits/s speed=0.00998x elapsed=0:02:25.22    \nframe=   89 fps=0.6 q=14.9 size=    1280KiB time=00:00:01.45 bitrate=7231.8kbits/s speed=0.00995x elapsed=0:02:25.75    \nframe=   89 fps=0.6 q=14.9 size=    1280KiB time=00:00:01.45 bitrate=7231.8kbits/s speed=0.00991x elapsed=0:02:26.28    \nframe=   89 fps=0.6 q=14.9 size=    1280KiB time=00:00:01.45 bitrate=7231.8kbits/s speed=0.00988x elapsed=0:02:26.82    \nframe=   89 fps=0.6 q=14.9 size=    1280KiB time=00:00:01.45 bitrate=7231.8kbits/s speed=0.00984x elapsed=0:02:27.39    \nframe=   89 fps=0.6 q=14.9 size=    1280KiB time=00:00:01.45 bitrate=7231.8kbits/s speed=0.0098x elapsed=0:02:28.00    \nframe=   89 fps=0.6 q=14.9 size=    1280KiB time=00:00:01.45 bitrate=7231.8kbits/s speed=0.00976x elapsed=0:02:28.62    \nframe=   89 fps=0.6 q=14.9 size=    1280KiB time=00:00:01.45 bitrate=7231.8kbits/s speed=0.00972x elapsed=0:02:29.21    \nframe=   90 fps=0.6 q=14.9 size=    1280KiB time=00:00:01.46 bitrate=7149.6kbits/s speed=0.0098x elapsed=0:02:29.72    \nframe=   90 fps=0.6 q=14.9 size=    1280KiB time=00:00:01.46 bitrate=7149.6kbits/s speed=0.00976x elapsed=0:02:30.25    \nframe=   90 fps=0.6 q=14.9 size=    1280KiB time=00:00:01.46 bitrate=7149.6kbits/s speed=0.00972x elapsed=0:02:30.82    \nframe=   90 fps=0.6 q=14.9 size=    1280KiB time=00:00:01.46 bitrate=7149.6kbits/s speed=0.00969x elapsed=0:02:31.36    \nframe=   90 fps=0.6 q=14.9 size=    1280KiB time=00:00:01.46 bitrate=7149.6kbits/s speed=0.00966x elapsed=0:02:31.90    \nframe=   91 fps=0.6 q=14.6 size=    1280KiB time=00:00:01.48 bitrate=7069.3kbits/s speed=0.00973x elapsed=0:02:32.43    \nframe=   91 fps=0.6 q=14.6 size=    1280KiB time=00:00:01.48 bitrate=7069.3kbits/s speed=0.0097x elapsed=0:02:32.96    \nframe=   92 fps=0.6 q=8.6 size=    1280KiB time=00:00:01.50 bitrate=6990.7kbits/s speed=0.00977x elapsed=0:02:33.49    \nframe=   93 fps=0.6 q=13.8 size=    1280KiB time=00:00:01.51 bitrate=6913.9kbits/s speed=0.00985x elapsed=0:02:34.01    \nframe=   93 fps=0.6 q=13.8 size=    1280KiB time=00:00:01.51 bitrate=6913.9kbits/s speed=0.00981x elapsed=0:02:34.53    \nframe=   94 fps=0.6 q=14.4 size=    1280KiB time=00:00:01.53 bitrate=6838.8kbits/s speed=0.00989x elapsed=0:02:35.05    \nframe=   94 fps=0.6 q=14.4 size=    1280KiB time=00:00:01.53 bitrate=6838.8kbits/s speed=0.00986x elapsed=0:02:35.58    \nframe=   94 fps=0.6 q=14.4 size=    1280KiB time=00:00:01.53 bitrate=6838.8kbits/s speed=0.00982x elapsed=0:02:36.10    \nframe=   95 fps=0.6 q=14.7 size=    1280KiB time=00:00:01.55 bitrate=6765.2kbits/s speed=0.0099x elapsed=0:02:36.61    \nframe=   95 fps=0.6 q=14.7 size=    1280KiB time=00:00:01.55 bitrate=6765.2kbits/s speed=0.00986x elapsed=0:02:37.12    \nframe=   95 fps=0.6 q=14.7 size=    1280KiB time=00:00:01.55 bitrate=6765.2kbits/s speed=0.00983x elapsed=0:02:37.65    \nframe=   96 fps=0.6 q=14.4 size=    1280KiB time=00:00:01.56 bitrate=6693.3kbits/s speed=0.00991x elapsed=0:02:38.15    \nframe=   96 fps=0.6 q=14.4 size=    1280KiB time=00:00:01.56 bitrate=6693.3kbits/s speed=0.00987x elapsed=0:02:38.67    \nframe=   97 fps=0.6 q=8.3 size=    1280KiB time=00:00:01.58 bitrate=6622.8kbits/s speed=0.00995x elapsed=0:02:39.20    \nframe=   98 fps=0.6 q=13.9 size=    1280KiB time=00:00:01.60 bitrate=6553.8kbits/s speed=0.01x elapsed=0:02:39.73    \nframe=   99 fps=0.6 q=15.1 size=    1280KiB time=00:00:01.61 bitrate=6486.3kbits/s speed=0.0101x elapsed=0:02:40.30    \nframe=   99 fps=0.6 q=15.1 size=    1280KiB time=00:00:01.61 bitrate=6486.3kbits/s speed=0.0101x elapsed=0:02:40.83    \nframe=   99 fps=0.6 q=15.1 size=    1280KiB time=00:00:01.61 bitrate=6486.3kbits/s speed=0.01x elapsed=0:02:41.36    \nframe=   99 fps=0.6 q=15.1 size=    1280KiB time=00:00:01.61 bitrate=6486.3kbits/s speed=0.00999x elapsed=0:02:41.88    \nframe=   99 fps=0.6 q=15.1 size=    1280KiB time=00:00:01.61 bitrate=6486.3kbits/s speed=0.00996x elapsed=0:02:42.39    \nframe=  100 fps=0.6 q=14.9 size=    1536KiB time=00:00:01.63 bitrate=7704.0kbits/s speed=0.01x elapsed=0:02:42.91    \nframe=  100 fps=0.6 q=14.9 size=    1536KiB time=00:00:01.63 bitrate=7704.0kbits/s speed=0.00999x elapsed=0:02:43.45    \nframe=  100 fps=0.6 q=14.9 size=    1536KiB time=00:00:01.63 bitrate=7704.0kbits/s speed=0.00996x elapsed=0:02:43.97    \nframe=  101 fps=0.6 q=15.0 size=    1536KiB time=00:00:01.65 bitrate=7626.2kbits/s speed=0.01x elapsed=0:02:44.51    \nframe=  102 fps=0.6 q=8.5 size=    1536KiB time=00:00:01.66 bitrate=7550.0kbits/s speed=0.0101x elapsed=0:02:45.01    \nframe=  102 fps=0.6 q=8.5 size=    1536KiB time=00:00:01.66 bitrate=7550.0kbits/s speed=0.0101x elapsed=0:02:45.54    \nframe=  103 fps=0.6 q=13.8 size=    1536KiB time=00:00:01.68 bitrate=7475.2kbits/s speed=0.0101x elapsed=0:02:46.07    \nframe=  103 fps=0.6 q=13.8 size=    1536KiB time=00:00:01.68 bitrate=7475.2kbits/s speed=0.0101x elapsed=0:02:46.59    \nframe=  104 fps=0.6 q=15.1 size=    1536KiB time=00:00:01.70 bitrate=7401.9kbits/s speed=0.0102x elapsed=0:02:47.11    \nframe=  104 fps=0.6 q=15.1 size=    1536KiB time=00:00:01.70 bitrate=7401.9kbits/s speed=0.0101x elapsed=0:02:47.64    \nframe=  104 fps=0.6 q=15.1 size=    1536KiB time=00:00:01.70 bitrate=7401.9kbits/s speed=0.0101x elapsed=0:02:48.17    \nframe=  104 fps=0.6 q=15.1 size=    1536KiB time=00:00:01.70 bitrate=7401.9kbits/s speed=0.0101x elapsed=0:02:48.69    \nframe=  104 fps=0.6 q=15.1 size=    1536KiB time=00:00:01.70 bitrate=7401.9kbits/s speed=0.01x elapsed=0:02:49.25    \nframe=  104 fps=0.6 q=15.1 size=    1536KiB time=00:00:01.70 bitrate=7401.9kbits/s speed=0.01x elapsed=0:02:49.78    \nframe=  105 fps=0.6 q=14.8 size=    1536KiB time=00:00:01.71 bitrate=7330.1kbits/s speed=0.0101x elapsed=0:02:50.31    \nframe=  106 fps=0.6 q=14.4 size=    1536KiB time=00:00:01.73 bitrate=7259.6kbits/s speed=0.0101x elapsed=0:02:50.85    \nframe=  106 fps=0.6 q=14.4 size=    1536KiB time=00:00:01.73 bitrate=7259.6kbits/s speed=0.0101x elapsed=0:02:51.37    \nframe=  106 fps=0.6 q=14.4 size=    1536KiB time=00:00:01.73 bitrate=7259.6kbits/s speed=0.0101x elapsed=0:02:51.89    \nframe=  107 fps=0.6 q=8.2 size=    1536KiB time=00:00:01.75 bitrate=7190.4kbits/s speed=0.0101x elapsed=0:02:52.41    \nframe=  107 fps=0.6 q=8.2 size=    1536KiB time=00:00:01.75 bitrate=7190.4kbits/s speed=0.0101x elapsed=0:02:52.92    \nframe=  108 fps=0.6 q=13.9 size=    1536KiB time=00:00:01.76 bitrate=7122.6kbits/s speed=0.0102x elapsed=0:02:53.44    \nframe=  109 fps=0.6 q=14.6 size=    1536KiB time=00:00:01.78 bitrate=7056.0kbits/s speed=0.0103x elapsed=0:02:53.95    \nframe=  109 fps=0.6 q=14.6 size=    1536KiB time=00:00:01.78 bitrate=7056.0kbits/s speed=0.0102x elapsed=0:02:54.49    \nframe=  109 fps=0.6 q=14.6 size=    1536KiB time=00:00:01.78 bitrate=7056.0kbits/s speed=0.0102x elapsed=0:02:55.00    \nframe=  110 fps=0.6 q=14.5 size=    1536KiB time=00:00:01.80 bitrate=6990.7kbits/s speed=0.0103x elapsed=0:02:55.52    \nframe=  110 fps=0.6 q=14.5 size=    1536KiB time=00:00:01.80 bitrate=6990.7kbits/s speed=0.0102x elapsed=0:02:56.04    \nframe=  110 fps=0.6 q=14.5 size=    1536KiB time=00:00:01.80 bitrate=6990.7kbits/s speed=0.0102x elapsed=0:02:56.59    \nframe=  110 fps=0.6 q=14.5 size=    1536KiB time=00:00:01.80 bitrate=6990.7kbits/s speed=0.0102x elapsed=0:02:57.12    \nframe=  111 fps=0.6 q=14.3 size=    1536KiB time=00:00:01.81 bitrate=6926.6kbits/s speed=0.0102x elapsed=0:02:57.65    \nframe=  112 fps=0.6 q=8.4 size=    1536KiB time=00:00:01.83 bitrate=6863.6kbits/s speed=0.0103x elapsed=0:02:58.15    \nframe=  112 fps=0.6 q=8.4 size=    1536KiB time=00:00:01.83 bitrate=6863.6kbits/s speed=0.0103x elapsed=0:02:58.68    \nframe=  113 fps=0.6 q=13.7 size=    1536KiB time=00:00:01.85 bitrate=6801.8kbits/s speed=0.0103x elapsed=0:02:59.19    \nframe=  113 fps=0.6 q=13.7 size=    1536KiB time=00:00:01.85 bitrate=6801.8kbits/s speed=0.0103x elapsed=0:02:59.70    \nframe=  113 fps=0.6 q=13.7 size=    1536KiB time=00:00:01.85 bitrate=6801.8kbits/s speed=0.0103x elapsed=0:03:00.23    \nframe=  114 fps=0.6 q=14.7 size=    1536KiB time=00:00:01.86 bitrate=6741.0kbits/s speed=0.0103x elapsed=0:03:00.75    \nframe=  114 fps=0.6 q=14.7 size=    1536KiB time=00:00:01.86 bitrate=6741.0kbits/s speed=0.0103x elapsed=0:03:01.27    \nframe=  114 fps=0.6 q=14.7 size=    1536KiB time=00:00:01.86 bitrate=6741.0kbits/s speed=0.0103x elapsed=0:03:01.80    \nframe=  114 fps=0.6 q=14.7 size=    1536KiB time=00:00:01.86 bitrate=6741.0kbits/s speed=0.0102x elapsed=0:03:02.31    \nframe=  115 fps=0.6 q=14.7 size=    1792KiB time=00:00:01.88 bitrate=7794.9kbits/s speed=0.0103x elapsed=0:03:02.83    \nframe=  115 fps=0.6 q=14.7 size=    1792KiB time=00:00:01.88 bitrate=7794.9kbits/s speed=0.0103x elapsed=0:03:03.36    \nframe=  115 fps=0.6 q=14.7 size=    1792KiB time=00:00:01.88 bitrate=7794.9kbits/s speed=0.0102x elapsed=0:03:03.88    \nframe=  115 fps=0.6 q=14.7 size=    1792KiB time=00:00:01.88 bitrate=7794.9kbits/s speed=0.0102x elapsed=0:03:04.40    \nframe=  116 fps=0.6 q=14.6 size=    1792KiB time=00:00:01.90 bitrate=7726.5kbits/s speed=0.0103x elapsed=0:03:04.90    \nframe=  116 fps=0.6 q=14.6 size=    1792KiB time=00:00:01.90 bitrate=7726.5kbits/s speed=0.0102x elapsed=0:03:05.42    \nframe=  117 fps=0.6 q=8.5 size=    1792KiB time=00:00:01.91 bitrate=7659.3kbits/s speed=0.0103x elapsed=0:03:05.96    \nframe=  118 fps=0.6 q=13.7 size=    1792KiB time=00:00:01.93 bitrate=7593.3kbits/s speed=0.0104x elapsed=0:03:06.51    \nframe=  118 fps=0.6 q=13.7 size=    1792KiB time=00:00:01.93 bitrate=7593.3kbits/s speed=0.0103x elapsed=0:03:07.04    \nframe=  120 fps=0.6 q=14.8 size=    1792KiB time=00:00:01.96 bitrate=7464.6kbits/s speed=0.0105x elapsed=0:03:07.56    \nframe=  121 fps=0.6 q=14.6 size=    1792KiB time=00:00:01.98 bitrate=7401.9kbits/s speed=0.0105x elapsed=0:03:08.07    \nframe=  121 fps=0.6 q=14.6 size=    1792KiB time=00:00:01.98 bitrate=7401.9kbits/s speed=0.0105x elapsed=0:03:08.59    \nframe=  121 fps=0.6 q=14.6 size=    1792KiB time=00:00:01.98 bitrate=7401.9kbits/s speed=0.0105x elapsed=0:03:09.16    \nframe=  121 fps=0.6 q=14.6 size=    1792KiB time=00:00:01.98 bitrate=7401.9kbits/s speed=0.0105x elapsed=0:03:09.70    \nframe=  123 fps=0.6 q=13.7 size=    1792KiB time=00:00:02.01 bitrate=7279.5kbits/s speed=0.0106x elapsed=0:03:10.25    \nframe=  124 fps=0.6 q=14.9 size=    1792KiB time=00:00:02.03 bitrate=7219.9kbits/s speed=0.0107x elapsed=0:03:10.77    \nframe=  124 fps=0.6 q=14.9 size=    1792KiB time=00:00:02.03 bitrate=7219.9kbits/s speed=0.0106x elapsed=0:03:11.29    \nframe=  124 fps=0.6 q=14.9 size=    1792KiB time=00:00:02.03 bitrate=7219.9kbits/s speed=0.0106x elapsed=0:03:11.83    \nframe=  125 fps=0.6 q=14.8 size=    1792KiB time=00:00:02.05 bitrate=7161.2kbits/s speed=0.0107x elapsed=0:03:12.37    \nframe=  126 fps=0.7 q=14.5 size=    1792KiB time=00:00:02.06 bitrate=7103.4kbits/s speed=0.0107x elapsed=0:03:12.87    \nframe=  127 fps=0.7 q=8.9 size=    1792KiB time=00:00:02.08 bitrate=7046.6kbits/s speed=0.0108x elapsed=0:03:13.40    \nframe=  128 fps=0.7 q=13.7 size=    1792KiB time=00:00:02.10 bitrate=6990.7kbits/s speed=0.0108x elapsed=0:03:13.92    \nframe=  128 fps=0.7 q=13.7 size=    1792KiB time=00:00:02.10 bitrate=6990.7kbits/s speed=0.0108x elapsed=0:03:14.44    \nframe=  129 fps=0.7 q=15.2 size=    1792KiB time=00:00:02.11 bitrate=6935.6kbits/s speed=0.0109x elapsed=0:03:14.97    \nframe=  129 fps=0.7 q=15.2 size=    1792KiB time=00:00:02.11 bitrate=6935.6kbits/s speed=0.0108x elapsed=0:03:15.48    \nframe=  130 fps=0.7 q=14.9 size=    1792KiB time=00:00:02.13 bitrate=6881.4kbits/s speed=0.0109x elapsed=0:03:16.00    \nframe=  131 fps=0.7 q=15.0 size=    2048KiB time=00:00:02.15 bitrate=7803.5kbits/s speed=0.0109x elapsed=0:03:16.52    \nframe=  131 fps=0.7 q=15.0 size=    2048KiB time=00:00:02.15 bitrate=7803.5kbits/s speed=0.0109x elapsed=0:03:17.06    \nframe=  132 fps=0.7 q=8.1 size=    2048KiB time=00:00:02.16 bitrate=7743.5kbits/s speed=0.011x elapsed=0:03:17.59    \nframe=  133 fps=0.7 q=14.1 size=    2048KiB time=00:00:02.18 bitrate=7684.4kbits/s speed=0.011x elapsed=0:03:18.10    \nframe=  133 fps=0.7 q=14.1 size=    2048KiB time=00:00:02.18 bitrate=7684.4kbits/s speed=0.011x elapsed=0:03:18.61    \nframe=  133 fps=0.7 q=14.1 size=    2048KiB time=00:00:02.18 bitrate=7684.4kbits/s speed=0.011x elapsed=0:03:19.13    \nframe=  134 fps=0.7 q=15.5 size=    2048KiB time=00:00:02.20 bitrate=7626.2kbits/s speed=0.011x elapsed=0:03:19.64    \nframe=  135 fps=0.7 q=15.0 size=    2048KiB time=00:00:02.21 bitrate=7568.8kbits/s speed=0.0111x elapsed=0:03:20.16    \nframe=  136 fps=0.7 q=15.3 size=    2048KiB time=00:00:02.23 bitrate=7512.3kbits/s speed=0.0111x elapsed=0:03:20.68    \nframe=  137 fps=0.7 q=8.1 size=    2048KiB time=00:00:02.25 bitrate=7456.7kbits/s speed=0.0112x elapsed=0:03:21.19    \nframe=  138 fps=0.7 q=13.9 size=    2048KiB time=00:00:02.26 bitrate=7401.9kbits/s speed=0.0112x elapsed=0:03:21.70    \nframe=  138 fps=0.7 q=13.9 size=    2048KiB time=00:00:02.26 bitrate=7401.9kbits/s speed=0.0112x elapsed=0:03:22.24    \nframe=  139 fps=0.7 q=15.1 size=    2048KiB time=00:00:02.28 bitrate=7347.8kbits/s speed=0.0113x elapsed=0:03:22.76    \nframe=  140 fps=0.7 q=14.9 size=    2048KiB time=00:00:02.30 bitrate=7294.6kbits/s speed=0.0113x elapsed=0:03:23.32    \nframe=  140 fps=0.7 q=14.9 size=    2048KiB time=00:00:02.30 bitrate=7294.6kbits/s speed=0.0113x elapsed=0:03:23.89    \nframe=  140 fps=0.7 q=14.9 size=    2048KiB time=00:00:02.30 bitrate=7294.6kbits/s speed=0.0113x elapsed=0:03:24.41    \nframe=  140 fps=0.7 q=14.9 size=    2048KiB time=00:00:02.30 bitrate=7294.6kbits/s speed=0.0112x elapsed=0:03:24.93    \nframe=  141 fps=0.7 q=14.5 size=    2048KiB time=00:00:02.31 bitrate=7242.1kbits/s speed=0.0113x elapsed=0:03:25.45    \nframe=  142 fps=0.7 q=8.7 size=    2048KiB time=00:00:02.33 bitrate=7190.4kbits/s speed=0.0113x elapsed=0:03:25.98    \nframe=  143 fps=0.7 q=14.0 size=    2048KiB time=00:00:02.35 bitrate=7139.4kbits/s speed=0.0114x elapsed=0:03:26.50    \nframe=  143 fps=0.7 q=14.0 size=    2048KiB time=00:00:02.35 bitrate=7139.4kbits/s speed=0.0114x elapsed=0:03:27.02    \nframe=  144 fps=0.7 q=15.1 size=    2048KiB time=00:00:02.36 bitrate=7089.1kbits/s speed=0.0114x elapsed=0:03:27.54    \nframe=  146 fps=0.7 q=14.4 size=    2048KiB time=00:00:02.40 bitrate=6990.7kbits/s speed=0.0115x elapsed=0:03:28.05    \nframe=  146 fps=0.7 q=14.4 size=    2048KiB time=00:00:02.40 bitrate=6990.7kbits/s speed=0.0115x elapsed=0:03:28.57    \nframe=  147 fps=0.7 q=8.2 size=    2048KiB time=00:00:02.41 bitrate=6942.4kbits/s speed=0.0116x elapsed=0:03:29.09    \nframe=  148 fps=0.7 q=13.9 size=    2304KiB time=00:00:02.43 bitrate=7756.7kbits/s speed=0.0116x elapsed=0:03:29.59    \nframe=  149 fps=0.7 q=15.2 size=    2304KiB time=00:00:02.45 bitrate=7704.0kbits/s speed=0.0117x elapsed=0:03:30.11    \nframe=  150 fps=0.7 q=15.1 size=    2304KiB time=00:00:02.46 bitrate=7651.9kbits/s speed=0.0117x elapsed=0:03:30.63    \nframe=  151 fps=0.7 q=15.0 size=    2304KiB time=00:00:02.48 bitrate=7600.6kbits/s speed=0.0118x elapsed=0:03:31.14    \nframe=  152 fps=0.7 q=8.3 size=    2304KiB time=00:00:02.50 bitrate=7549.9kbits/s speed=0.0118x elapsed=0:03:31.66    \nframe=  153 fps=0.7 q=13.9 size=    2304KiB time=00:00:02.51 bitrate=7499.9kbits/s speed=0.0119x elapsed=0:03:32.18    \nframe=  154 fps=0.7 q=15.0 size=    2304KiB time=00:00:02.53 bitrate=7450.5kbits/s speed=0.0119x elapsed=0:03:32.68    \nframe=  155 fps=0.7 q=15.1 size=    2304KiB time=00:00:02.55 bitrate=7401.9kbits/s speed=0.012x elapsed=0:03:33.20    \nframe=  156 fps=0.7 q=14.7 size=    2304KiB time=00:00:02.56 bitrate=7353.8kbits/s speed=0.012x elapsed=0:03:33.73    \nframe=  157 fps=0.7 q=8.2 size=    2304KiB time=00:00:02.58 bitrate=7306.3kbits/s speed=0.0121x elapsed=0:03:34.23    \nframe=  158 fps=0.7 q=13.6 size=    2304KiB time=00:00:02.60 bitrate=7259.5kbits/s speed=0.0121x elapsed=0:03:34.75    \nframe=  159 fps=0.7 q=15.0 size=    2304KiB time=00:00:02.61 bitrate=7213.3kbits/s speed=0.0122x elapsed=0:03:35.27    \nframe=  160 fps=0.7 q=14.8 size=    2304KiB time=00:00:02.63 bitrate=7167.6kbits/s speed=0.0122x elapsed=0:03:35.78    \nframe=  161 fps=0.7 q=14.6 size=    2304KiB time=00:00:02.65 bitrate=7122.5kbits/s speed=0.0123x elapsed=0:03:36.30    \nframe=  162 fps=0.7 q=8.4 size=    2304KiB time=00:00:02.66 bitrate=7078.0kbits/s speed=0.0123x elapsed=0:03:36.82    \nframe=  163 fps=0.7 q=13.5 size=    2560KiB time=00:00:02.68 bitrate=7815.6kbits/s speed=0.0123x elapsed=0:03:37.34    \nframe=  165 fps=0.8 q=14.8 size=    2560KiB time=00:00:02.71 bitrate=7719.7kbits/s speed=0.0125x elapsed=0:03:37.86    \nframe=  166 fps=0.8 q=15.0 size=    2560KiB time=00:00:02.73 bitrate=7672.6kbits/s speed=0.0125x elapsed=0:03:38.38    \nframe=  167 fps=0.8 q=8.5 size=    2560KiB time=00:00:02.75 bitrate=7626.1kbits/s speed=0.0126x elapsed=0:03:38.90    \nframe=  168 fps=0.8 q=14.0 size=    2560KiB time=00:00:02.76 bitrate=7580.2kbits/s speed=0.0126x elapsed=0:03:39.40    \nframe=  169 fps=0.8 q=15.1 size=    2560KiB time=00:00:02.78 bitrate=7534.8kbits/s speed=0.0127x elapsed=0:03:39.92    \nframe=  170 fps=0.8 q=14.9 size=    2560KiB time=00:00:02.80 bitrate=7490.0kbits/s speed=0.0127x elapsed=0:03:40.44    \nframe=  170 fps=0.8 q=14.9 size=    2560KiB time=00:00:02.80 bitrate=7490.0kbits/s speed=0.0127x elapsed=0:03:40.97    \nframe=  171 fps=0.8 q=14.9 size=    2560KiB time=00:00:02.81 bitrate=7445.6kbits/s speed=0.0127x elapsed=0:03:41.49    \nframe=  171 fps=0.8 q=14.9 size=    2560KiB time=00:00:02.81 bitrate=7445.6kbits/s speed=0.0127x elapsed=0:03:42.02    \nframe=  171 fps=0.8 q=14.9 size=    2560KiB time=00:00:02.81 bitrate=7445.6kbits/s speed=0.0127x elapsed=0:03:42.55    \nframe=  172 fps=0.8 q=8.1 size=    2560KiB time=00:00:02.83 bitrate=7401.8kbits/s speed=0.0127x elapsed=0:03:43.08    \nframe=  172 fps=0.8 q=8.1 size=    2560KiB time=00:00:02.83 bitrate=7401.8kbits/s speed=0.0127x elapsed=0:03:43.61    \nframe=  173 fps=0.8 q=14.2 size=    2560KiB time=00:00:02.85 bitrate=7358.6kbits/s speed=0.0127x elapsed=0:03:44.15    \nframe=  173 fps=0.8 q=14.2 size=    2560KiB time=00:00:02.85 bitrate=7358.6kbits/s speed=0.0127x elapsed=0:03:44.67    \nframe=  174 fps=0.8 q=15.2 size=    2560KiB time=00:00:02.86 bitrate=7315.8kbits/s speed=0.0127x elapsed=0:03:45.21    \nframe=  175 fps=0.8 q=14.8 size=    2560KiB time=00:00:02.88 bitrate=7273.5kbits/s speed=0.0128x elapsed=0:03:45.72    \nframe=  176 fps=0.8 q=15.4 size=    2560KiB time=00:00:02.90 bitrate=7231.7kbits/s speed=0.0128x elapsed=0:03:46.24    \nframe=  176 fps=0.8 q=15.4 size=    2560KiB time=00:00:02.90 bitrate=7231.7kbits/s speed=0.0128x elapsed=0:03:46.76    \nframe=  176 fps=0.8 q=15.4 size=    2560KiB time=00:00:02.90 bitrate=7231.7kbits/s speed=0.0128x elapsed=0:03:47.27    \nframe=  176 fps=0.8 q=15.4 size=    2560KiB time=00:00:02.90 bitrate=7231.7kbits/s speed=0.0127x elapsed=0:03:47.82    \nframe=  176 fps=0.8 q=15.4 size=    2560KiB time=00:00:02.90 bitrate=7231.7kbits/s speed=0.0127x elapsed=0:03:48.34    \nframe=  177 fps=0.8 q=8.2 size=    2560KiB time=00:00:02.91 bitrate=7190.4kbits/s speed=0.0127x elapsed=0:03:48.85    \nframe=  178 fps=0.8 q=13.7 size=    2816KiB time=00:00:02.93 bitrate=7864.4kbits/s speed=0.0128x elapsed=0:03:49.41    \nframe=  179 fps=0.8 q=15.2 size=    2816KiB time=00:00:02.95 bitrate=7820.0kbits/s speed=0.0128x elapsed=0:03:49.94    \nframe=  179 fps=0.8 q=15.2 size=    2816KiB time=00:00:02.95 bitrate=7820.0kbits/s speed=0.0128x elapsed=0:03:50.48    \nframe=  179 fps=0.8 q=15.2 size=    2816KiB time=00:00:02.95 bitrate=7820.0kbits/s speed=0.0128x elapsed=0:03:51.01    \nframe=  180 fps=0.8 q=14.8 size=    2816KiB time=00:00:02.96 bitrate=7776.1kbits/s speed=0.0128x elapsed=0:03:51.52    \nframe=  180 fps=0.8 q=14.8 size=    2816KiB time=00:00:02.96 bitrate=7776.1kbits/s speed=0.0128x elapsed=0:03:52.04    \nframe=  181 fps=0.8 q=14.3 size=    2816KiB time=00:00:02.98 bitrate=7732.6kbits/s speed=0.0128x elapsed=0:03:52.56    \nframe=  181 fps=0.8 q=14.3 size=    2816KiB time=00:00:02.98 bitrate=7732.6kbits/s speed=0.0128x elapsed=0:03:53.08    \nframe=  181 fps=0.8 q=14.3 size=    2816KiB time=00:00:02.98 bitrate=7732.6kbits/s speed=0.0128x elapsed=0:03:53.60    \nframe=  182 fps=0.8 q=8.0 size=    2816KiB time=00:00:03.00 bitrate=7689.7kbits/s speed=0.0128x elapsed=0:03:54.14    \nframe=  183 fps=0.8 q=14.0 size=    2816KiB time=00:00:03.01 bitrate=7647.2kbits/s speed=0.0129x elapsed=0:03:54.66    \nframe=  183 fps=0.8 q=14.0 size=    2816KiB time=00:00:03.01 bitrate=7647.2kbits/s speed=0.0128x elapsed=0:03:55.17    \nframe=  183 fps=0.8 q=14.0 size=    2816KiB time=00:00:03.01 bitrate=7647.2kbits/s speed=0.0128x elapsed=0:03:55.69    \nframe=  184 fps=0.8 q=15.2 size=    2816KiB time=00:00:03.03 bitrate=7605.2kbits/s speed=0.0128x elapsed=0:03:56.22    \nframe=  184 fps=0.8 q=15.2 size=    2816KiB time=00:00:03.03 bitrate=7605.2kbits/s speed=0.0128x elapsed=0:03:56.74    \nframe=  185 fps=0.8 q=14.9 size=    2816KiB time=00:00:03.05 bitrate=7563.6kbits/s speed=0.0129x elapsed=0:03:57.25    \nframe=  185 fps=0.8 q=14.9 size=    2816KiB time=00:00:03.05 bitrate=7563.6kbits/s speed=0.0128x elapsed=0:03:57.78    \nframe=  185 fps=0.8 q=14.9 size=    2816KiB time=00:00:03.05 bitrate=7563.6kbits/s speed=0.0128x elapsed=0:03:58.32    \nframe=  185 fps=0.8 q=14.9 size=    2816KiB time=00:00:03.05 bitrate=7563.6kbits/s speed=0.0128x elapsed=0:03:58.84    \nframe=  186 fps=0.8 q=14.9 size=    2816KiB time=00:00:03.06 bitrate=7522.5kbits/s speed=0.0128x elapsed=0:03:59.36    \nframe=  187 fps=0.8 q=8.1 size=    2816KiB time=00:00:03.08 bitrate=7481.8kbits/s speed=0.0129x elapsed=0:03:59.88    \nframe=  187 fps=0.8 q=8.1 size=    2816KiB time=00:00:03.08 bitrate=7481.8kbits/s speed=0.0128x elapsed=0:04:00.41    \nframe=  187 fps=0.8 q=8.1 size=    2816KiB time=00:00:03.08 bitrate=7481.8kbits/s speed=0.0128x elapsed=0:04:00.96    \nframe=  188 fps=0.8 q=13.8 size=    2816KiB time=00:00:03.10 bitrate=7441.6kbits/s speed=0.0128x elapsed=0:04:01.50    \nframe=  188 fps=0.8 q=13.8 size=    2816KiB time=00:00:03.10 bitrate=7441.6kbits/s speed=0.0128x elapsed=0:04:02.12    \nframe=  188 fps=0.8 q=13.8 size=    2816KiB time=00:00:03.10 bitrate=7441.6kbits/s speed=0.0128x elapsed=0:04:02.76    \nframe=  188 fps=0.8 q=13.8 size=    2816KiB time=00:00:03.10 bitrate=7441.6kbits/s speed=0.0127x elapsed=0:04:03.37    \nframe=  188 fps=0.8 q=13.8 size=    2816KiB time=00:00:03.10 bitrate=7441.6kbits/s speed=0.0127x elapsed=0:04:03.93    \nframe=  188 fps=0.8 q=13.8 size=    2816KiB time=00:00:03.10 bitrate=7441.6kbits/s speed=0.0127x elapsed=0:04:04.47    \nframe=  188 fps=0.8 q=13.8 size=    2816KiB time=00:00:03.10 bitrate=7441.6kbits/s speed=0.0126x elapsed=0:04:05.07    \nframe=  188 fps=0.8 q=13.8 size=    2816KiB time=00:00:03.10 bitrate=7441.6kbits/s speed=0.0126x elapsed=0:04:05.69    \nframe=  189 fps=0.8 q=14.6 size=    2816KiB time=00:00:03.11 bitrate=7401.8kbits/s speed=0.0127x elapsed=0:04:06.24    \nframe=  190 fps=0.8 q=14.5 size=    2816KiB time=00:00:03.13 bitrate=7362.5kbits/s speed=0.0127x elapsed=0:04:06.77    \nframe=  190 fps=0.8 q=14.5 size=    2816KiB time=00:00:03.13 bitrate=7362.5kbits/s speed=0.0127x elapsed=0:04:07.32    \nframe=  191 fps=0.8 q=14.5 size=    2816KiB time=00:00:03.15 bitrate=7323.5kbits/s speed=0.0127x elapsed=0:04:07.85    \nframe=  191 fps=0.8 q=14.5 size=    2816KiB time=00:00:03.15 bitrate=7323.5kbits/s speed=0.0127x elapsed=0:04:08.38    \nframe=  191 fps=0.8 q=14.5 size=    2816KiB time=00:00:03.15 bitrate=7323.5kbits/s speed=0.0127x elapsed=0:04:08.93    \nframe=  191 fps=0.8 q=14.5 size=    2816KiB time=00:00:03.15 bitrate=7323.5kbits/s speed=0.0126x elapsed=0:04:09.45    \nframe=  192 fps=0.8 q=8.0 size=    2816KiB time=00:00:03.16 bitrate=7285.0kbits/s speed=0.0127x elapsed=0:04:09.97    \nframe=  192 fps=0.8 q=8.0 size=    2816KiB time=00:00:03.16 bitrate=7285.0kbits/s speed=0.0126x elapsed=0:04:10.50    \nframe=  193 fps=0.8 q=13.8 size=    3072KiB time=00:00:03.18 bitrate=7905.6kbits/s speed=0.0127x elapsed=0:04:11.02    \nframe=  193 fps=0.8 q=13.8 size=    3072KiB time=00:00:03.18 bitrate=7905.6kbits/s speed=0.0127x elapsed=0:04:11.54    \nframe=  194 fps=0.8 q=15.1 size=    3072KiB time=00:00:03.20 bitrate=7864.4kbits/s speed=0.0127x elapsed=0:04:12.05    \nframe=  194 fps=0.8 q=15.1 size=    3072KiB time=00:00:03.20 bitrate=7864.4kbits/s speed=0.0127x elapsed=0:04:12.58    \nframe=  196 fps=0.8 q=14.3 size=    3072KiB time=00:00:03.23 bitrate=7783.4kbits/s speed=0.0128x elapsed=0:04:13.10    \nframe=  196 fps=0.8 q=14.3 size=    3072KiB time=00:00:03.23 bitrate=7783.4kbits/s speed=0.0127x elapsed=0:04:13.62    \nframe=  196 fps=0.8 q=14.3 size=    3072KiB time=00:00:03.23 bitrate=7783.4kbits/s speed=0.0127x elapsed=0:04:14.16    \nframe=  197 fps=0.8 q=7.9 size=    3072KiB time=00:00:03.25 bitrate=7743.4kbits/s speed=0.0128x elapsed=0:04:14.70    \nframe=  197 fps=0.8 q=7.9 size=    3072KiB time=00:00:03.25 bitrate=7743.4kbits/s speed=0.0127x elapsed=0:04:15.24    \nframe=  198 fps=0.8 q=13.8 size=    3072KiB time=00:00:03.26 bitrate=7703.9kbits/s speed=0.0128x elapsed=0:04:15.77    \nframe=  198 fps=0.8 q=13.8 size=    3072KiB time=00:00:03.26 bitrate=7703.9kbits/s speed=0.0127x elapsed=0:04:16.32    \nframe=  199 fps=0.8 q=14.9 size=    3072KiB time=00:00:03.28 bitrate=7664.8kbits/s speed=0.0128x elapsed=0:04:16.85    \nframe=  200 fps=0.8 q=14.4 size=    3072KiB time=00:00:03.30 bitrate=7626.1kbits/s speed=0.0128x elapsed=0:04:17.37    \nframe=  200 fps=0.8 q=14.4 size=    3072KiB time=00:00:03.30 bitrate=7626.1kbits/s speed=0.0128x elapsed=0:04:17.91    \nframe=  200 fps=0.8 q=14.4 size=    3072KiB time=00:00:03.30 bitrate=7626.1kbits/s speed=0.0128x elapsed=0:04:18.45    \nframe=  200 fps=0.8 q=14.4 size=    3072KiB time=00:00:03.30 bitrate=7626.1kbits/s speed=0.0127x elapsed=0:04:19.00    \nframe=  201 fps=0.8 q=14.2 size=    3072KiB time=00:00:03.31 bitrate=7587.8kbits/s speed=0.0128x elapsed=0:04:19.55    \nframe=  202 fps=0.8 q=7.9 size=    3072KiB time=00:00:03.33 bitrate=7549.9kbits/s speed=0.0128x elapsed=0:04:20.09    \nframe=  202 fps=0.8 q=7.9 size=    3072KiB time=00:00:03.33 bitrate=7549.9kbits/s speed=0.0128x elapsed=0:04:20.63    \nframe=  203 fps=0.8 q=13.8 size=    3072KiB time=00:00:03.35 bitrate=7512.3kbits/s speed=0.0128x elapsed=0:04:21.15    \nframe=  203 fps=0.8 q=13.8 size=    3072KiB time=00:00:03.35 bitrate=7512.3kbits/s speed=0.0128x elapsed=0:04:21.67    \nframe=  204 fps=0.8 q=14.9 size=    3072KiB time=00:00:03.36 bitrate=7475.1kbits/s speed=0.0128x elapsed=0:04:22.19    \nframe=  204 fps=0.8 q=14.9 size=    3072KiB time=00:00:03.36 bitrate=7475.1kbits/s speed=0.0128x elapsed=0:04:22.72    \nframe=  204 fps=0.8 q=14.9 size=    3072KiB time=00:00:03.36 bitrate=7475.1kbits/s speed=0.0128x elapsed=0:04:23.29    \nframe=  205 fps=0.8 q=14.6 size=    3072KiB time=00:00:03.36 bitrate=7475.1kbits/s speed=0.0128x elapsed=0:04:23.85    \nframe=  205 fps=0.8 q=14.6 size=    3072KiB time=00:00:03.38 bitrate=7438.3kbits/s speed=0.0128x elapsed=0:04:24.45    \nframe=  205 fps=0.8 q=14.6 size=    3072KiB time=00:00:03.38 bitrate=7438.3kbits/s speed=0.0128x elapsed=0:04:25.00    \nframe=  205 fps=0.8 q=14.6 size=    3072KiB time=00:00:03.38 bitrate=7438.3kbits/s speed=0.0127x elapsed=0:04:25.59    \nframe=  205 fps=0.8 q=14.6 size=    3072KiB time=00:00:03.38 bitrate=7438.3kbits/s speed=0.0127x elapsed=0:04:26.11    \nframe=  205 fps=0.8 q=14.6 size=    3072KiB time=00:00:03.38 bitrate=7438.3kbits/s speed=0.0127x elapsed=0:04:26.66    \nframe=  205 fps=0.8 q=14.6 size=    3072KiB time=00:00:03.38 bitrate=7438.3kbits/s speed=0.0127x elapsed=0:04:27.22    \nframe=  206 fps=0.8 q=15.2 size=    3072KiB time=00:00:03.40 bitrate=7401.8kbits/s speed=0.0127x elapsed=0:04:27.78    \nframe=  206 fps=0.8 q=15.2 size=    3072KiB time=00:00:03.40 bitrate=7401.8kbits/s speed=0.0127x elapsed=0:04:28.31    \nframe=  207 fps=0.8 q=8.5 size=    3072KiB time=00:00:03.41 bitrate=7365.7kbits/s speed=0.0127x elapsed=0:04:28.83    \nframe=  207 fps=0.8 q=8.5 size=    3072KiB time=00:00:03.41 bitrate=7365.7kbits/s speed=0.0127x elapsed=0:04:29.38    \nframe=  208 fps=0.8 q=13.6 size=    3072KiB time=00:00:03.43 bitrate=7330.0kbits/s speed=0.0127x elapsed=0:04:29.95    \nframe=  208 fps=0.8 q=13.6 size=    3072KiB time=00:00:03.43 bitrate=7330.0kbits/s speed=0.0127x elapsed=0:04:30.52    \nframe=  209 fps=0.8 q=14.7 size=    3072KiB time=00:00:03.45 bitrate=7294.5kbits/s speed=0.0127x elapsed=0:04:31.05    \nframe=  209 fps=0.8 q=14.7 size=    3072KiB time=00:00:03.45 bitrate=7294.5kbits/s speed=0.0127x elapsed=0:04:31.56    \nframe=  210 fps=0.8 q=14.7 size=    3328KiB time=00:00:03.46 bitrate=7864.4kbits/s speed=0.0127x elapsed=0:04:32.10    \nframe=  210 fps=0.8 q=14.7 size=    3328KiB time=00:00:03.46 bitrate=7864.4kbits/s speed=0.0127x elapsed=0:04:32.66    \nframe=  210 fps=0.8 q=14.7 size=    3328KiB time=00:00:03.46 bitrate=7864.4kbits/s speed=0.0127x elapsed=0:04:33.24    \nframe=  211 fps=0.8 q=14.3 size=    3328KiB time=00:00:03.48 bitrate=7826.8kbits/s speed=0.0127x elapsed=0:04:33.79    \nframe=  211 fps=0.8 q=14.3 size=    3328KiB time=00:00:03.48 bitrate=7826.8kbits/s speed=0.0127x elapsed=0:04:34.34    \nframe=  211 fps=0.8 q=14.3 size=    3328KiB time=00:00:03.48 bitrate=7826.8kbits/s speed=0.0127x elapsed=0:04:34.88    \nframe=  212 fps=0.8 q=8.3 size=    3328KiB time=00:00:03.50 bitrate=7789.5kbits/s speed=0.0127x elapsed=0:04:35.40    \nframe=  212 fps=0.8 q=8.3 size=    3328KiB time=00:00:03.50 bitrate=7789.5kbits/s speed=0.0127x elapsed=0:04:35.95    \nframe=  212 fps=0.8 q=8.3 size=    3328KiB time=00:00:03.50 bitrate=7789.5kbits/s speed=0.0127x elapsed=0:04:36.53    \nframe=  212 fps=0.8 q=8.3 size=    3328KiB time=00:00:03.50 bitrate=7789.5kbits/s speed=0.0126x elapsed=0:04:37.13    \nframe=  212 fps=0.8 q=8.3 size=    3328KiB time=00:00:03.50 bitrate=7789.5kbits/s speed=0.0126x elapsed=0:04:37.70    \nframe=  212 fps=0.8 q=8.3 size=    3328KiB time=00:00:03.50 bitrate=7789.5kbits/s speed=0.0126x elapsed=0:04:38.25    \nframe=  213 fps=0.8 q=13.8 size=    3328KiB time=00:00:03.51 bitrate=7752.6kbits/s speed=0.0126x elapsed=0:04:38.80    \nframe=  213 fps=0.8 q=13.8 size=    3328KiB time=00:00:03.51 bitrate=7752.6kbits/s speed=0.0126x elapsed=0:04:39.39    \nframe=  213 fps=0.8 q=13.8 size=    3328KiB time=00:00:03.51 bitrate=7752.6kbits/s speed=0.0126x elapsed=0:04:39.95    \nframe=  214 fps=0.8 q=15.0 size=    3328KiB time=00:00:03.53 bitrate=7716.0kbits/s speed=0.0126x elapsed=0:04:40.48    \nframe=  214 fps=0.8 q=15.0 size=    3328KiB time=00:00:03.53 bitrate=7716.0kbits/s speed=0.0126x elapsed=0:04:41.04    \nframe=  214 fps=0.8 q=15.0 size=    3328KiB time=00:00:03.53 bitrate=7716.0kbits/s speed=0.0125x elapsed=0:04:41.54    \nframe=  214 fps=0.8 q=15.0 size=    3328KiB time=00:00:03.53 bitrate=7716.0kbits/s speed=0.0125x elapsed=0:04:42.10    \nframe=  215 fps=0.8 q=15.0 size=    3328KiB time=00:00:03.55 bitrate=7679.8kbits/s speed=0.0126x elapsed=0:04:42.66    \nframe=  215 fps=0.8 q=15.0 size=    3328KiB time=00:00:03.55 bitrate=7679.8kbits/s speed=0.0125x elapsed=0:04:43.20    \nframe=  216 fps=0.8 q=14.2 size=    3328KiB time=00:00:03.56 bitrate=7643.9kbits/s speed=0.0126x elapsed=0:04:43.77    \nframe=  216 fps=0.8 q=14.2 size=    3328KiB time=00:00:03.56 bitrate=7643.9kbits/s speed=0.0125x elapsed=0:04:44.35    \nframe=  216 fps=0.8 q=14.2 size=    3328KiB time=00:00:03.56 bitrate=7643.9kbits/s speed=0.0125x elapsed=0:04:44.94    \nframe=  216 fps=0.8 q=14.2 size=    3328KiB time=00:00:03.56 bitrate=7643.9kbits/s speed=0.0125x elapsed=0:04:45.54    \nframe=  216 fps=0.8 q=14.2 size=    3328KiB time=00:00:03.56 bitrate=7643.9kbits/s speed=0.0125x elapsed=0:04:46.18    \nframe=  216 fps=0.8 q=14.2 size=    3328KiB time=00:00:03.56 bitrate=7643.9kbits/s speed=0.0124x elapsed=0:04:46.77    \nframe=  216 fps=0.8 q=14.2 size=    3328KiB time=00:00:03.56 bitrate=7643.9kbits/s speed=0.0124x elapsed=0:04:47.33    \nframe=  216 fps=0.8 q=14.2 size=    3328KiB time=00:00:03.56 bitrate=7643.9kbits/s speed=0.0124x elapsed=0:04:47.86    \nframe=  216 fps=0.7 q=14.2 size=    3328KiB time=00:00:03.56 bitrate=7643.9kbits/s speed=0.0124x elapsed=0:04:48.38    \nframe=  216 fps=0.7 q=14.2 size=    3328KiB time=00:00:03.56 bitrate=7643.9kbits/s speed=0.0123x elapsed=0:04:48.93    \nframe=  216 fps=0.7 q=14.2 size=    3328KiB time=00:00:03.56 bitrate=7643.9kbits/s speed=0.0123x elapsed=0:04:49.47    \nframe=  217 fps=0.7 q=8.8 size=    3328KiB time=00:00:03.58 bitrate=7608.4kbits/s speed=0.0124x elapsed=0:04:49.99    \nframe=  218 fps=0.8 q=13.5 size=    3328KiB time=00:00:03.60 bitrate=7573.1kbits/s speed=0.0124x elapsed=0:04:50.51    \nframe=  218 fps=0.7 q=13.5 size=    3328KiB time=00:00:03.60 bitrate=7573.1kbits/s speed=0.0124x elapsed=0:04:51.03    \nframe=  219 fps=0.8 q=14.9 size=    3328KiB time=00:00:03.61 bitrate=7538.2kbits/s speed=0.0124x elapsed=0:04:51.55    \nframe=  219 fps=0.7 q=14.9 size=    3328KiB time=00:00:03.61 bitrate=7538.2kbits/s speed=0.0124x elapsed=0:04:52.07    \nframe=  220 fps=0.8 q=14.7 size=    3328KiB time=00:00:03.63 bitrate=7503.7kbits/s speed=0.0124x elapsed=0:04:52.58    \nframe=  221 fps=0.8 q=14.5 size=    3328KiB time=00:00:03.65 bitrate=7469.4kbits/s speed=0.0125x elapsed=0:04:53.10    \nframe=  222 fps=0.8 q=7.5 size=    3328KiB time=00:00:03.66 bitrate=7435.5kbits/s speed=0.0125x elapsed=0:04:53.62    \nframe=  222 fps=0.8 q=7.5 size=    3328KiB time=00:00:03.66 bitrate=7435.5kbits/s speed=0.0125x elapsed=0:04:54.16    \nframe=  222 fps=0.8 q=7.5 size=    3328KiB time=00:00:03.66 bitrate=7435.5kbits/s speed=0.0124x elapsed=0:04:54.70    \nframe=  222 fps=0.8 q=7.5 size=    3328KiB time=00:00:03.66 bitrate=7435.5kbits/s speed=0.0124x elapsed=0:04:55.26    \nframe=  222 fps=0.8 q=7.5 size=    3328KiB time=00:00:03.66 bitrate=7435.5kbits/s speed=0.0124x elapsed=0:04:55.80    \nframe=  222 fps=0.7 q=7.5 size=    3328KiB time=00:00:03.66 bitrate=7435.5kbits/s speed=0.0124x elapsed=0:04:56.35    \nframe=  222 fps=0.7 q=7.5 size=    3328KiB time=00:00:03.66 bitrate=7435.5kbits/s speed=0.0123x elapsed=0:04:56.93    \nframe=  222 fps=0.7 q=7.5 size=    3328KiB time=00:00:03.66 bitrate=7435.5kbits/s speed=0.0123x elapsed=0:04:57.49    \nframe=  223 fps=0.7 q=13.6 size=    3328KiB time=00:00:03.68 bitrate=7401.8kbits/s speed=0.0124x elapsed=0:04:58.10    \nframe=  223 fps=0.7 q=13.6 size=    3328KiB time=00:00:03.68 bitrate=7401.8kbits/s speed=0.0123x elapsed=0:04:58.66    \nframe=  224 fps=0.7 q=14.8 size=    3328KiB time=00:00:03.70 bitrate=7368.5kbits/s speed=0.0124x elapsed=0:04:59.21    \nframe=  224 fps=0.7 q=14.8 size=    3328KiB time=00:00:03.70 bitrate=7368.5kbits/s speed=0.0123x elapsed=0:04:59.75    \nframe=  224 fps=0.7 q=14.8 size=    3328KiB time=00:00:03.70 bitrate=7368.5kbits/s speed=0.0123x elapsed=0:05:00.34    \nframe=  224 fps=0.7 q=14.8 size=    3328KiB time=00:00:03.70 bitrate=7368.5kbits/s speed=0.0123x elapsed=0:05:00.91    \nframe=  225 fps=0.7 q=14.8 size=    3584KiB time=00:00:03.71 bitrate=7899.7kbits/s speed=0.0123x elapsed=0:05:01.46    \nframe=  225 fps=0.7 q=14.8 size=    3584KiB time=00:00:03.71 bitrate=7899.7kbits/s speed=0.0123x elapsed=0:05:02.04    \nframe=  226 fps=0.7 q=14.8 size=    3584KiB time=00:00:03.73 bitrate=7864.4kbits/s speed=0.0123x elapsed=0:05:02.66    \nframe=  226 fps=0.7 q=14.8 size=    3584KiB time=00:00:03.73 bitrate=7864.4kbits/s speed=0.0123x elapsed=0:05:03.20    \nframe=  226 fps=0.7 q=14.8 size=    3584KiB time=00:00:03.73 bitrate=7864.4kbits/s speed=0.0123x elapsed=0:05:03.76    \nframe=  226 fps=0.7 q=14.8 size=    3584KiB time=00:00:03.73 bitrate=7864.4kbits/s speed=0.0123x elapsed=0:05:04.31    \nframe=  226 fps=0.7 q=14.8 size=    3584KiB time=00:00:03.73 bitrate=7864.4kbits/s speed=0.0122x elapsed=0:05:04.86    \nframe=  226 fps=0.7 q=14.8 size=    3584KiB time=00:00:03.73 bitrate=7864.4kbits/s speed=0.0122x elapsed=0:05:05.51    \nframe=  226 fps=0.7 q=14.8 size=    3584KiB time=00:00:03.73 bitrate=7864.4kbits/s speed=0.0122x elapsed=0:05:06.10    \nframe=  226 fps=0.7 q=14.8 size=    3584KiB time=00:00:03.73 bitrate=7864.4kbits/s speed=0.0122x elapsed=0:05:06.67    \nframe=  226 fps=0.7 q=14.8 size=    3584KiB time=00:00:03.73 bitrate=7864.4kbits/s speed=0.0122x elapsed=0:05:07.20    \nframe=  227 fps=0.7 q=8.1 size=    3584KiB time=00:00:03.75 bitrate=7829.5kbits/s speed=0.0122x elapsed=0:05:07.72    \nframe=  227 fps=0.7 q=8.1 size=    3584KiB time=00:00:03.75 bitrate=7829.5kbits/s speed=0.0122x elapsed=0:05:08.25    \nframe=  227 fps=0.7 q=8.1 size=    3584KiB time=00:00:03.75 bitrate=7829.5kbits/s speed=0.0121x elapsed=0:05:08.77    \nframe=  227 fps=0.7 q=8.1 size=    3584KiB time=00:00:03.75 bitrate=7829.5kbits/s speed=0.0121x elapsed=0:05:09.32    \nframe=  227 fps=0.7 q=8.1 size=    3584KiB time=00:00:03.75 bitrate=7829.5kbits/s speed=0.0121x elapsed=0:05:09.88    \nframe=  227 fps=0.7 q=8.1 size=    3584KiB time=00:00:03.75 bitrate=7829.5kbits/s speed=0.0121x elapsed=0:05:10.44    \nframe=  228 fps=0.7 q=14.0 size=    3584KiB time=00:00:03.76 bitrate=7794.8kbits/s speed=0.0121x elapsed=0:05:10.99    \nframe=  228 fps=0.7 q=14.0 size=    3584KiB time=00:00:03.76 bitrate=7794.8kbits/s speed=0.0121x elapsed=0:05:11.51    \nframe=  229 fps=0.7 q=14.6 size=    3584KiB time=00:00:03.78 bitrate=7760.5kbits/s speed=0.0121x elapsed=0:05:12.03    \nframe=  229 fps=0.7 q=14.6 size=    3584KiB time=00:00:03.78 bitrate=7760.5kbits/s speed=0.0121x elapsed=0:05:12.60    \nframe=  229 fps=0.7 q=14.6 size=    3584KiB time=00:00:03.78 bitrate=7760.5kbits/s speed=0.0121x elapsed=0:05:13.19    \nframe=  229 fps=0.7 q=14.6 size=    3584KiB time=00:00:03.78 bitrate=7760.5kbits/s speed=0.0121x elapsed=0:05:13.77    \nframe=  229 fps=0.7 q=14.6 size=    3584KiB time=00:00:03.78 bitrate=7760.5kbits/s speed=0.012x elapsed=0:05:14.32    \nframe=  229 fps=0.7 q=14.6 size=    3584KiB time=00:00:03.78 bitrate=7760.5kbits/s speed=0.012x elapsed=0:05:14.85    \nframe=  230 fps=0.7 q=14.9 size=    3584KiB time=00:00:03.80 bitrate=7726.4kbits/s speed=0.012x elapsed=0:05:15.40    \nframe=  230 fps=0.7 q=14.9 size=    3584KiB time=00:00:03.80 bitrate=7726.4kbits/s speed=0.012x elapsed=0:05:15.94    \nframe=  230 fps=0.7 q=14.9 size=    3584KiB time=00:00:03.80 bitrate=7726.4kbits/s speed=0.012x elapsed=0:05:16.50    \nframe=  231 fps=0.7 q=15.1 size=    3584KiB time=00:00:03.81 bitrate=7692.7kbits/s speed=0.012x elapsed=0:05:17.05    \nframe=  231 fps=0.7 q=15.1 size=    3584KiB time=00:00:03.81 bitrate=7692.7kbits/s speed=0.012x elapsed=0:05:17.59    \nframe=  231 fps=0.7 q=15.1 size=    3584KiB time=00:00:03.81 bitrate=7692.7kbits/s speed=0.012x elapsed=0:05:18.15    \nframe=  232 fps=0.7 q=8.2 size=    3584KiB time=00:00:03.83 bitrate=7659.3kbits/s speed=0.012x elapsed=0:05:18.68    \nframe=  232 fps=0.7 q=8.2 size=    3584KiB time=00:00:03.83 bitrate=7659.3kbits/s speed=0.012x elapsed=0:05:19.23    \nframe=  232 fps=0.7 q=8.2 size=    3584KiB time=00:00:03.83 bitrate=7659.3kbits/s speed=0.012x elapsed=0:05:19.77    \nframe=  232 fps=0.7 q=8.2 size=    3584KiB time=00:00:03.83 bitrate=7659.3kbits/s speed=0.012x elapsed=0:05:20.32    \nframe=  233 fps=0.7 q=13.9 size=    3584KiB time=00:00:03.85 bitrate=7626.1kbits/s speed=0.012x elapsed=0:05:20.88    \nframe=  233 fps=0.7 q=13.9 size=    3584KiB time=00:00:03.85 bitrate=7626.1kbits/s speed=0.012x elapsed=0:05:21.52    \nframe=  233 fps=0.7 q=13.9 size=    3584KiB time=00:00:03.85 bitrate=7626.1kbits/s speed=0.012x elapsed=0:05:22.12    \nframe=  233 fps=0.7 q=13.9 size=    3584KiB time=00:00:03.85 bitrate=7626.1kbits/s speed=0.0119x elapsed=0:05:22.71    \nframe=  233 fps=0.7 q=13.9 size=    3584KiB time=00:00:03.85 bitrate=7626.1kbits/s speed=0.0119x elapsed=0:05:23.25    \nframe=  233 fps=0.7 q=13.9 size=    3584KiB time=00:00:03.85 bitrate=7626.1kbits/s speed=0.0119x elapsed=0:05:23.85    \nframe=  233 fps=0.7 q=13.9 size=    3584KiB time=00:00:03.85 bitrate=7626.1kbits/s speed=0.0119x elapsed=0:05:24.43    \nframe=  233 fps=0.7 q=13.9 size=    3584KiB time=00:00:03.85 bitrate=7626.1kbits/s speed=0.0118x elapsed=0:05:24.95    \nframe=  234 fps=0.7 q=14.9 size=    3584KiB time=00:00:03.86 bitrate=7593.2kbits/s speed=0.0119x elapsed=0:05:25.53    \nframe=  234 fps=0.7 q=14.9 size=    3584KiB time=00:00:03.86 bitrate=7593.2kbits/s speed=0.0119x elapsed=0:05:26.12    \nframe=  234 fps=0.7 q=14.9 size=    3584KiB time=00:00:03.86 bitrate=7593.2kbits/s speed=0.0118x elapsed=0:05:26.67    \nframe=  235 fps=0.7 q=15.0 size=    3584KiB time=00:00:03.88 bitrate=7560.6kbits/s speed=0.0119x elapsed=0:05:27.19    \nframe=  235 fps=0.7 q=15.0 size=    3584KiB time=00:00:03.88 bitrate=7560.6kbits/s speed=0.0118x elapsed=0:05:27.70    \nframe=  235 fps=0.7 q=15.0 size=    3584KiB time=00:00:03.88 bitrate=7560.6kbits/s speed=0.0118x elapsed=0:05:28.25    \nframe=  236 fps=0.7 q=15.0 size=    3584KiB time=00:00:03.90 bitrate=7528.3kbits/s speed=0.0119x elapsed=0:05:28.78    \nframe=  237 fps=0.7 q=8.2 size=    3584KiB time=00:00:03.91 bitrate=7496.3kbits/s speed=0.0119x elapsed=0:05:29.30    \nframe=  237 fps=0.7 q=8.2 size=    3584KiB time=00:00:03.91 bitrate=7496.3kbits/s speed=0.0119x elapsed=0:05:29.84    \nframe=  238 fps=0.7 q=13.8 size=    3584KiB time=00:00:03.93 bitrate=7464.5kbits/s speed=0.0119x elapsed=0:05:30.40    \nframe=  238 fps=0.7 q=13.8 size=    3584KiB time=00:00:03.93 bitrate=7464.5kbits/s speed=0.0119x elapsed=0:05:30.93    \nframe=  238 fps=0.7 q=13.8 size=    3584KiB time=00:00:03.93 bitrate=7464.5kbits/s speed=0.0119x elapsed=0:05:31.46    \nframe=  239 fps=0.7 q=15.2 size=    3584KiB time=00:00:03.95 bitrate=7433.0kbits/s speed=0.0119x elapsed=0:05:31.98    \nframe=  239 fps=0.7 q=15.2 size=    3584KiB time=00:00:03.95 bitrate=7433.0kbits/s speed=0.0119x elapsed=0:05:32.50    \nframe=  241 fps=0.7 q=14.9 size=    3584KiB time=00:00:03.98 bitrate=7370.8kbits/s speed=0.012x elapsed=0:05:33.02    \nframe=  241 fps=0.7 q=14.9 size=    3584KiB time=00:00:03.98 bitrate=7370.8kbits/s speed=0.0119x elapsed=0:05:33.53    \nframe=  241 fps=0.7 q=14.9 size=    3584KiB time=00:00:03.98 bitrate=7370.8kbits/s speed=0.0119x elapsed=0:05:34.05    \nframe=  241 fps=0.7 q=14.9 size=    3584KiB time=00:00:03.98 bitrate=7370.8kbits/s speed=0.0119x elapsed=0:05:34.57    \nframe=  241 fps=0.7 q=14.9 size=    3584KiB time=00:00:03.98 bitrate=7370.8kbits/s speed=0.0119x elapsed=0:05:35.09    \nframe=  242 fps=0.7 q=8.1 size=    3840KiB time=00:00:04.00 bitrate=7864.4kbits/s speed=0.0119x elapsed=0:05:35.62    \nframe=  243 fps=0.7 q=14.1 size=    3840KiB time=00:00:04.01 bitrate=7831.8kbits/s speed=0.0119x elapsed=0:05:36.13    \nframe=  243 fps=0.7 q=14.1 size=    3840KiB time=00:00:04.01 bitrate=7831.8kbits/s speed=0.0119x elapsed=0:05:36.67    \nframe=  243 fps=0.7 q=14.1 size=    3840KiB time=00:00:04.01 bitrate=7831.8kbits/s speed=0.0119x elapsed=0:05:37.20    \nframe=  243 fps=0.7 q=14.1 size=    3840KiB time=00:00:04.01 bitrate=7831.8kbits/s speed=0.0119x elapsed=0:05:37.72    \nframe=  244 fps=0.7 q=15.2 size=    3840KiB time=00:00:04.03 bitrate=7799.4kbits/s speed=0.0119x elapsed=0:05:38.24    \nframe=  244 fps=0.7 q=15.2 size=    3840KiB time=00:00:04.03 bitrate=7799.4kbits/s speed=0.0119x elapsed=0:05:38.79    \nframe=  245 fps=0.7 q=15.1 size=    3840KiB time=00:00:04.05 bitrate=7767.3kbits/s speed=0.0119x elapsed=0:05:39.34    \nframe=  246 fps=0.7 q=15.3 size=    3840KiB time=00:00:04.06 bitrate=7735.5kbits/s speed=0.012x elapsed=0:05:39.88    \nframe=  246 fps=0.7 q=15.3 size=    3840KiB time=00:00:04.06 bitrate=7735.5kbits/s speed=0.0119x elapsed=0:05:40.44    \nframe=  246 fps=0.7 q=15.3 size=    3840KiB time=00:00:04.06 bitrate=7735.5kbits/s speed=0.0119x elapsed=0:05:40.98    \nframe=  247 fps=0.7 q=5.9 size=    3840KiB time=00:00:04.08 bitrate=7703.9kbits/s speed=0.012x elapsed=0:05:41.51    \nframe=  247 fps=0.7 q=5.9 size=    3840KiB time=00:00:04.08 bitrate=7703.9kbits/s speed=0.0119x elapsed=0:05:42.01    \nframe=  248 fps=0.7 q=13.9 size=    3840KiB time=00:00:04.10 bitrate=7672.6kbits/s speed=0.012x elapsed=0:05:42.54    \nframe=  248 fps=0.7 q=13.9 size=    3840KiB time=00:00:04.10 bitrate=7672.6kbits/s speed=0.012x elapsed=0:05:43.08    \nframe=  248 fps=0.7 q=13.9 size=    3840KiB time=00:00:04.10 bitrate=7672.6kbits/s speed=0.0119x elapsed=0:05:43.61    \nframe=  249 fps=0.7 q=15.2 size=    3840KiB time=00:00:04.11 bitrate=7641.5kbits/s speed=0.012x elapsed=0:05:44.14    \nframe=  249 fps=0.7 q=15.2 size=    3840KiB time=00:00:04.11 bitrate=7641.5kbits/s speed=0.0119x elapsed=0:05:44.67    \nframe=  250 fps=0.7 q=15.2 size=    3840KiB time=00:00:04.13 bitrate=7610.7kbits/s speed=0.012x elapsed=0:05:45.19    \nframe=  250 fps=0.7 q=15.2 size=    3840KiB time=00:00:04.13 bitrate=7610.7kbits/s speed=0.012x elapsed=0:05:45.73    \nframe=  251 fps=0.7 q=15.0 size=    3840KiB time=00:00:04.15 bitrate=7580.2kbits/s speed=0.012x elapsed=0:05:46.27    \nframe=  251 fps=0.7 q=15.0 size=    3840KiB time=00:00:04.15 bitrate=7580.2kbits/s speed=0.012x elapsed=0:05:46.81    \nframe=  251 fps=0.7 q=15.0 size=    3840KiB time=00:00:04.15 bitrate=7580.2kbits/s speed=0.0119x elapsed=0:05:47.43    \nframe=  251 fps=0.7 q=15.0 size=    3840KiB time=00:00:04.15 bitrate=7580.2kbits/s speed=0.0119x elapsed=0:05:48.00    \nframe=  251 fps=0.7 q=15.0 size=    3840KiB time=00:00:04.15 bitrate=7580.2kbits/s speed=0.0119x elapsed=0:05:48.58    \nframe=  251 fps=0.7 q=15.0 size=    3840KiB time=00:00:04.15 bitrate=7580.2kbits/s speed=0.0119x elapsed=0:05:49.11    \nframe=  252 fps=0.7 q=7.0 size=    3840KiB time=00:00:04.16 bitrate=7549.8kbits/s speed=0.0119x elapsed=0:05:49.65    \nframe=  252 fps=0.7 q=7.0 size=    3840KiB time=00:00:04.16 bitrate=7549.8kbits/s speed=0.0119x elapsed=0:05:50.15    \nframe=  252 fps=0.7 q=7.0 size=    3840KiB time=00:00:04.16 bitrate=7549.8kbits/s speed=0.0119x elapsed=0:05:50.68    \nframe=  252 fps=0.7 q=7.0 size=    3840KiB time=00:00:04.16 bitrate=7549.8kbits/s speed=0.0119x elapsed=0:05:51.21    \nframe=  253 fps=0.7 q=13.2 size=    3840KiB time=00:00:04.18 bitrate=7519.8kbits/s speed=0.0119x elapsed=0:05:51.74    \nframe=  253 fps=0.7 q=13.2 size=    3840KiB time=00:00:04.18 bitrate=7519.8kbits/s speed=0.0119x elapsed=0:05:52.27    \nframe=  253 fps=0.7 q=13.2 size=    3840KiB time=00:00:04.18 bitrate=7519.8kbits/s speed=0.0119x elapsed=0:05:52.86    \nframe=  253 fps=0.7 q=13.2 size=    3840KiB time=00:00:04.18 bitrate=7519.8kbits/s speed=0.0118x elapsed=0:05:53.46    \nframe=  253 fps=0.7 q=13.2 size=    3840KiB time=00:00:04.18 bitrate=7519.8kbits/s speed=0.0118x elapsed=0:05:53.99    \nframe=  254 fps=0.7 q=14.2 size=    3840KiB time=00:00:04.20 bitrate=7489.9kbits/s speed=0.0118x elapsed=0:05:54.53    \nframe=  254 fps=0.7 q=14.2 size=    3840KiB time=00:00:04.20 bitrate=7489.9kbits/s speed=0.0118x elapsed=0:05:55.11    \nframe=  254 fps=0.7 q=14.2 size=    3840KiB time=00:00:04.20 bitrate=7489.9kbits/s speed=0.0118x elapsed=0:05:55.68    \nframe=  254 fps=0.7 q=14.2 size=    3840KiB time=00:00:04.20 bitrate=7489.9kbits/s speed=0.0118x elapsed=0:05:56.19    \nframe=  256 fps=0.7 q=14.3 size=    4096KiB time=00:00:04.23 bitrate=7926.3kbits/s speed=0.0119x elapsed=0:05:56.82    \nframe=  256 fps=0.7 q=14.3 size=    4096KiB time=00:00:04.23 bitrate=7926.3kbits/s speed=0.0118x elapsed=0:05:57.36    \nframe=  256 fps=0.7 q=14.3 size=    4096KiB time=00:00:04.23 bitrate=7926.3kbits/s speed=0.0118x elapsed=0:05:57.93    \nframe=  256 fps=0.7 q=14.3 size=    4096KiB time=00:00:04.23 bitrate=7926.3kbits/s speed=0.0118x elapsed=0:05:58.47    \nframe=  256 fps=0.7 q=14.3 size=    4096KiB time=00:00:04.23 bitrate=7926.3kbits/s speed=0.0118x elapsed=0:05:59.01    \nframe=  256 fps=0.7 q=14.3 size=    4096KiB time=00:00:04.23 bitrate=7926.3kbits/s speed=0.0118x elapsed=0:05:59.53    \nframe=  257 fps=0.7 q=7.6 size=    4096KiB time=00:00:04.25 bitrate=7895.2kbits/s speed=0.0118x elapsed=0:06:00.07    \nframe=  257 fps=0.7 q=7.6 size=    4096KiB time=00:00:04.25 bitrate=7895.2kbits/s speed=0.0118x elapsed=0:06:00.59    \nframe=  257 fps=0.7 q=7.6 size=    4096KiB time=00:00:04.25 bitrate=7895.2kbits/s speed=0.0118x elapsed=0:06:01.13    \nframe=  258 fps=0.7 q=13.3 size=    4096KiB time=00:00:04.26 bitrate=7864.4kbits/s speed=0.0118x elapsed=0:06:01.65    \nframe=  258 fps=0.7 q=13.3 size=    4096KiB time=00:00:04.26 bitrate=7864.4kbits/s speed=0.0118x elapsed=0:06:02.17    \nframe=  259 fps=0.7 q=14.3 size=    4096KiB time=00:00:04.28 bitrate=7833.8kbits/s speed=0.0118x elapsed=0:06:02.69    \nframe=  260 fps=0.7 q=14.9 size=    4096KiB time=00:00:04.30 bitrate=7803.4kbits/s speed=0.0118x elapsed=0:06:03.22    \nframe=  261 fps=0.7 q=14.6 size=    4096KiB time=00:00:04.31 bitrate=7773.3kbits/s speed=0.0119x elapsed=0:06:03.75    \nframe=  261 fps=0.7 q=14.6 size=    4096KiB time=00:00:04.31 bitrate=7773.3kbits/s speed=0.0119x elapsed=0:06:04.27    \nframe=  261 fps=0.7 q=14.6 size=    4096KiB time=00:00:04.31 bitrate=7773.3kbits/s speed=0.0118x elapsed=0:06:04.78    \nframe=  261 fps=0.7 q=14.6 size=    4096KiB time=00:00:04.31 bitrate=7773.3kbits/s speed=0.0118x elapsed=0:06:05.29    \nframe=  262 fps=0.7 q=7.9 size=    4096KiB time=00:00:04.33 bitrate=7743.4kbits/s speed=0.0118x elapsed=0:06:05.82    \nframe=  262 fps=0.7 q=7.9 size=    4096KiB time=00:00:04.33 bitrate=7743.4kbits/s speed=0.0118x elapsed=0:06:06.33    \nframe=  263 fps=0.7 q=13.5 size=    4096KiB time=00:00:04.35 bitrate=7713.7kbits/s speed=0.0119x elapsed=0:06:06.88    \nframe=  263 fps=0.7 q=13.5 size=    4096KiB time=00:00:04.35 bitrate=7713.7kbits/s speed=0.0118x elapsed=0:06:07.40    \nframe=  265 fps=0.7 q=14.6 size=    4096KiB time=00:00:04.38 bitrate=7655.1kbits/s speed=0.0119x elapsed=0:06:07.92    \nframe=  265 fps=0.7 q=14.6 size=    4096KiB time=00:00:04.38 bitrate=7655.1kbits/s speed=0.0119x elapsed=0:06:08.45    \nframe=  266 fps=0.7 q=14.4 size=    4096KiB time=00:00:04.40 bitrate=7626.1kbits/s speed=0.0119x elapsed=0:06:08.98    \nframe=  266 fps=0.7 q=14.4 size=    4096KiB time=00:00:04.40 bitrate=7626.1kbits/s speed=0.0119x elapsed=0:06:09.48    \nframe=  267 fps=0.7 q=8.1 size=    4096KiB time=00:00:04.41 bitrate=7597.3kbits/s speed=0.0119x elapsed=0:06:10.00    \nframe=  268 fps=0.7 q=13.5 size=    4096KiB time=00:00:04.43 bitrate=7568.7kbits/s speed=0.012x elapsed=0:06:10.53    \nframe=  268 fps=0.7 q=13.5 size=    4096KiB time=00:00:04.43 bitrate=7568.7kbits/s speed=0.0119x elapsed=0:06:11.06    \nframe=  269 fps=0.7 q=14.9 size=    4096KiB time=00:00:04.45 bitrate=7540.4kbits/s speed=0.012x elapsed=0:06:11.66    \nframe=  270 fps=0.7 q=14.7 size=    4096KiB time=00:00:04.46 bitrate=7512.3kbits/s speed=0.012x elapsed=0:06:12.19    \nframe=  271 fps=0.7 q=14.4 size=    4096KiB time=00:00:04.48 bitrate=7484.3kbits/s speed=0.012x elapsed=0:06:12.73    \nframe=  271 fps=0.7 q=14.4 size=    4096KiB time=00:00:04.48 bitrate=7484.3kbits/s speed=0.012x elapsed=0:06:13.27    \nframe=  271 fps=0.7 q=14.4 size=    4096KiB time=00:00:04.48 bitrate=7484.3kbits/s speed=0.012x elapsed=0:06:13.82    \nframe=  272 fps=0.7 q=8.4 size=    4352KiB time=00:00:04.50 bitrate=7922.7kbits/s speed=0.012x elapsed=0:06:14.35    \nframe=  272 fps=0.7 q=8.4 size=    4352KiB time=00:00:04.50 bitrate=7922.7kbits/s speed=0.012x elapsed=0:06:14.86    \nframe=  273 fps=0.7 q=13.5 size=    4352KiB time=00:00:04.51 bitrate=7893.4kbits/s speed=0.012x elapsed=0:06:15.38    \nframe=  273 fps=0.7 q=13.5 size=    4352KiB time=00:00:04.51 bitrate=7893.4kbits/s speed=0.012x elapsed=0:06:15.91    \nframe=  273 fps=0.7 q=13.5 size=    4352KiB time=00:00:04.51 bitrate=7893.4kbits/s speed=0.012x elapsed=0:06:16.42    \nframe=  274 fps=0.7 q=15.2 size=    4352KiB time=00:00:04.53 bitrate=7864.4kbits/s speed=0.012x elapsed=0:06:16.95    \nframe=  274 fps=0.7 q=15.2 size=    4352KiB time=00:00:04.53 bitrate=7864.4kbits/s speed=0.012x elapsed=0:06:17.47    \nframe=  275 fps=0.7 q=14.5 size=    4352KiB time=00:00:04.55 bitrate=7835.6kbits/s speed=0.012x elapsed=0:06:17.98    \nframe=  275 fps=0.7 q=14.5 size=    4352KiB time=00:00:04.55 bitrate=7835.6kbits/s speed=0.012x elapsed=0:06:18.50    \nframe=  276 fps=0.7 q=14.6 size=    4352KiB time=00:00:04.56 bitrate=7807.0kbits/s speed=0.012x elapsed=0:06:19.01    \nframe=  276 fps=0.7 q=14.6 size=    4352KiB time=00:00:04.56 bitrate=7807.0kbits/s speed=0.012x elapsed=0:06:19.53    \nframe=  276 fps=0.7 q=14.6 size=    4352KiB time=00:00:04.56 bitrate=7807.0kbits/s speed=0.012x elapsed=0:06:20.04    \nframe=  277 fps=0.7 q=8.3 size=    4352KiB time=00:00:04.58 bitrate=7778.6kbits/s speed=0.012x elapsed=0:06:20.57    \nframe=  278 fps=0.7 q=13.5 size=    4352KiB time=00:00:04.60 bitrate=7750.4kbits/s speed=0.0121x elapsed=0:06:21.10    \nframe=  278 fps=0.7 q=13.5 size=    4352KiB time=00:00:04.60 bitrate=7750.4kbits/s speed=0.0121x elapsed=0:06:21.61    \nframe=  279 fps=0.7 q=15.1 size=    4352KiB time=00:00:04.61 bitrate=7722.4kbits/s speed=0.0121x elapsed=0:06:22.13    \nframe=  279 fps=0.7 q=15.1 size=    4352KiB time=00:00:04.61 bitrate=7722.4kbits/s speed=0.0121x elapsed=0:06:22.65    \nframe=  281 fps=0.7 q=14.4 size=    4352KiB time=00:00:04.65 bitrate=7667.1kbits/s speed=0.0121x elapsed=0:06:23.17    \nframe=  281 fps=0.7 q=14.4 size=    4352KiB time=00:00:04.65 bitrate=7667.1kbits/s speed=0.0121x elapsed=0:06:23.71    \nframe=  281 fps=0.7 q=14.4 size=    4352KiB time=00:00:04.65 bitrate=7667.1kbits/s speed=0.0121x elapsed=0:06:24.26    \nframe=  281 fps=0.7 q=14.4 size=    4352KiB time=00:00:04.65 bitrate=7667.1kbits/s speed=0.0121x elapsed=0:06:24.79    \nframe=  282 fps=0.7 q=8.1 size=    4352KiB time=00:00:04.66 bitrate=7639.7kbits/s speed=0.0121x elapsed=0:06:25.31    \nframe=  282 fps=0.7 q=8.1 size=    4352KiB time=00:00:04.66 bitrate=7639.7kbits/s speed=0.0121x elapsed=0:06:25.81    \nframe=  282 fps=0.7 q=8.1 size=    4352KiB time=00:00:04.66 bitrate=7639.7kbits/s speed=0.0121x elapsed=0:06:26.33    \nframe=  283 fps=0.7 q=13.4 size=    4352KiB time=00:00:04.68 bitrate=7612.5kbits/s speed=0.0121x elapsed=0:06:26.84    \nframe=  284 fps=0.7 q=14.8 size=    4352KiB time=00:00:04.70 bitrate=7585.5kbits/s speed=0.0121x elapsed=0:06:27.36    \nframe=  284 fps=0.7 q=14.8 size=    4352KiB time=00:00:04.70 bitrate=7585.5kbits/s speed=0.0121x elapsed=0:06:27.89    \nframe=  285 fps=0.7 q=14.7 size=    4352KiB time=00:00:04.71 bitrate=7558.7kbits/s speed=0.0121x elapsed=0:06:28.42    \nframe=  286 fps=0.7 q=14.4 size=    4352KiB time=00:00:04.73 bitrate=7532.1kbits/s speed=0.0122x elapsed=0:06:28.94    \nframe=  286 fps=0.7 q=14.4 size=    4352KiB time=00:00:04.73 bitrate=7532.1kbits/s speed=0.0122x elapsed=0:06:29.48    \nframe=  286 fps=0.7 q=14.4 size=    4352KiB time=00:00:04.73 bitrate=7532.1kbits/s speed=0.0121x elapsed=0:06:30.07    \nframe=  286 fps=0.7 q=14.4 size=    4352KiB time=00:00:04.73 bitrate=7532.1kbits/s speed=0.0121x elapsed=0:06:30.64    \nframe=  286 fps=0.7 q=14.4 size=    4352KiB time=00:00:04.73 bitrate=7532.1kbits/s speed=0.0121x elapsed=0:06:31.16    \nframe=  286 fps=0.7 q=14.4 size=    4352KiB time=00:00:04.73 bitrate=7532.1kbits/s speed=0.0121x elapsed=0:06:31.76    \nframe=  286 fps=0.7 q=14.4 size=    4352KiB time=00:00:04.73 bitrate=7532.1kbits/s speed=0.0121x elapsed=0:06:32.37    \nframe=  286 fps=0.7 q=14.4 size=    4352KiB time=00:00:04.73 bitrate=7532.1kbits/s speed=0.012x elapsed=0:06:32.94    \nframe=  286 fps=0.7 q=14.4 size=    4352KiB time=00:00:04.73 bitrate=7532.1kbits/s speed=0.012x elapsed=0:06:33.47    \nframe=  286 fps=0.7 q=14.4 size=    4352KiB time=00:00:04.73 bitrate=7532.1kbits/s speed=0.012x elapsed=0:06:33.99    \nframe=  287 fps=0.7 q=8.9 size=    4352KiB time=00:00:04.75 bitrate=7505.7kbits/s speed=0.012x elapsed=0:06:34.51    \nframe=  288 fps=0.7 q=13.3 size=    4608KiB time=00:00:04.76 bitrate=7919.4kbits/s speed=0.0121x elapsed=0:06:35.04    \nframe=  288 fps=0.7 q=13.3 size=    4608KiB time=00:00:04.76 bitrate=7919.4kbits/s speed=0.012x elapsed=0:06:35.59    \nframe=  288 fps=0.7 q=13.3 size=    4608KiB time=00:00:04.76 bitrate=7919.4kbits/s speed=0.012x elapsed=0:06:36.10    \nframe=  289 fps=0.7 q=14.7 size=    4608KiB time=00:00:04.78 bitrate=7891.8kbits/s speed=0.0121x elapsed=0:06:36.62    \nframe=  289 fps=0.7 q=14.7 size=    4608KiB time=00:00:04.78 bitrate=7891.8kbits/s speed=0.012x elapsed=0:06:37.14    \nframe=  290 fps=0.7 q=14.8 size=    4608KiB time=00:00:04.80 bitrate=7864.4kbits/s speed=0.0121x elapsed=0:06:37.66    \nframe=  290 fps=0.7 q=14.8 size=    4608KiB time=00:00:04.80 bitrate=7864.4kbits/s speed=0.0121x elapsed=0:06:38.18    \nframe=  291 fps=0.7 q=14.4 size=    4608KiB time=00:00:04.81 bitrate=7837.2kbits/s speed=0.0121x elapsed=0:06:38.70    \nframe=  291 fps=0.7 q=14.4 size=    4608KiB time=00:00:04.81 bitrate=7837.2kbits/s speed=0.0121x elapsed=0:06:39.22    \nframe=  292 fps=0.7 q=9.2 size=    4608KiB time=00:00:04.83 bitrate=7810.2kbits/s speed=0.0121x elapsed=0:06:39.73    \nframe=  292 fps=0.7 q=9.2 size=    4608KiB time=00:00:04.83 bitrate=7810.2kbits/s speed=0.0121x elapsed=0:06:40.25    \nframe=  293 fps=0.7 q=12.0 size=    4608KiB time=00:00:04.85 bitrate=7783.3kbits/s speed=0.0121x elapsed=0:06:40.77    \nframe=  294 fps=0.7 q=15.2 size=    4608KiB time=00:00:04.86 bitrate=7756.7kbits/s speed=0.0121x elapsed=0:06:41.31    \nframe=  294 fps=0.7 q=15.2 size=    4608KiB time=00:00:04.86 bitrate=7756.7kbits/s speed=0.0121x elapsed=0:06:41.85    \nframe=  295 fps=0.7 q=14.7 size=    4608KiB time=00:00:04.88 bitrate=7730.2kbits/s speed=0.0121x elapsed=0:06:42.37    \nframe=  295 fps=0.7 q=14.7 size=    4608KiB time=00:00:04.88 bitrate=7730.2kbits/s speed=0.0121x elapsed=0:06:42.89    \nframe=  296 fps=0.7 q=12.3 size=    4608KiB time=00:00:04.90 bitrate=7703.9kbits/s speed=0.0121x elapsed=0:06:43.41    \nframe=  296 fps=0.7 q=12.3 size=    4608KiB time=00:00:04.90 bitrate=7703.9kbits/s speed=0.0121x elapsed=0:06:43.93    \nframe=  296 fps=0.7 q=12.3 size=    4608KiB time=00:00:04.90 bitrate=7703.9kbits/s speed=0.0121x elapsed=0:06:44.45    \nframe=  297 fps=0.7 q=13.1 size=    4608KiB time=00:00:04.91 bitrate=7677.8kbits/s speed=0.0121x elapsed=0:06:44.97    \nframe=  297 fps=0.7 q=13.1 size=    4608KiB time=00:00:04.91 bitrate=7677.8kbits/s speed=0.0121x elapsed=0:06:45.49    \n[mp4 @ 0000026971b0ac00] Starting second pass: moving the moov atom to the beginning of the file\n[out#0/mp4 @ 0000026971b0aac0] video:4818KiB audio:0KiB subtitle:0KiB other streams:0KiB global headers:2KiB muxing overhead: 0.138933%\nframe=  300 fps=0.7 q=14.3 Lsize=    4824KiB time=00:00:04.96 bitrate=7957.3kbits/s speed=0.0122x elapsed=0:06:45.94    \nx265 [info]: frame I:      2, Avg QP:13.86  kb/s: 15787.68\nx265 [info]: frame P:     59, Avg QP:8.85  kb/s: 16021.32\nx265 [info]: frame B:    239, Avg QP:14.89  kb/s: 5818.34 \nx265 [info]: Weighted P-Frames: Y:0.0% UV:0.0%\n\nencoded 300 frames in 405.77s (0.74 fps), 7891.39 kb/s, Avg QP:13.69\n",
  "seconds": 406.1892409324646,
  "probe_out": {}
}